<svg width="40" height="40" viewBox="0 0 40 40" fill="none" xmlns="http://www.w3.org/2000/svg">
<path d="M20 2.5C10.3505 2.5 2.5 10.3505 2.5 20C2.5 29.6495 10.3505 37.5 20 37.5C29.6495 37.5 37.5 29.6495 37.5 20C37.5 10.3505 29.6495 2.5 20 2.5ZM4.5355 21H10.7655C10.8315 23.3275 11.128 25.5195 11.613 27.5H6.4415C5.33104 25.5019 4.67976 23.2814 4.535 21H4.5355ZM21 10.5V4.666C22.7665 5.246 24.499 7.3265 25.6905 10.5H21ZM26.3265 12.5C26.8345 14.402 27.1625 16.5885 27.234 19H21V12.5H26.3265ZM19 4.666V10.5H14.3095C15.501 7.3265 17.2335 5.2465 19 4.666ZM19 12.5V19H12.766C12.8375 16.5885 13.1655 14.402 13.6735 12.5H19ZM10.765 19H4.5355C4.6801 16.7186 5.33121 14.4982 6.4415 12.5H11.613C11.128 14.4805 10.8315 16.6725 10.765 19ZM12.766 21H19V27.5H13.6735C13.1655 25.598 12.8375 23.4115 12.766 21ZM19 29.5V35.334C17.2335 34.754 15.501 32.6735 14.3095 29.5H19ZM21 35.334V29.5H25.6905C24.499 32.6735 22.7665 34.7535 21 35.334ZM21 27.5V21H27.234C27.1625 23.4115 26.8345 25.598 26.3265 27.5H21ZM29.235 21H35.4645C35.3199 23.2814 34.6688 25.5018 33.5585 27.5H28.387C28.872 25.5195 29.1685 23.3275 29.235 21ZM29.235 19C29.1685 16.6725 28.872 14.4805 28.387 12.5H33.5585C34.6688 14.4982 35.3199 16.7186 35.4645 19H29.235ZM32.2345 10.5H27.8085C27.122 8.4575 26.218 6.715 25.151 5.3835C27.9525 6.37743 30.4103 8.15294 32.2345 10.5ZM14.849 5.3835C13.782 6.715 12.878 8.4575 12.1915 10.5H7.7655C9.58958 8.15302 12.0477 6.37752 14.849 5.3835ZM7.765 29.5H12.191C12.8775 31.5425 13.7815 33.285 14.8485 34.6165C12.0472 33.6225 9.58908 31.847 7.765 29.5ZM25.1505 34.6165C26.2175 33.285 27.1215 31.5425 27.808 29.5H32.234C30.4099 31.847 27.9518 33.6225 25.1505 34.6165Z" fill="#005EE2"/>
</svg>
