<svg width="40" height="40" viewBox="0 0 40 40" fill="none" xmlns="http://www.w3.org/2000/svg">
<path d="M20 6.875V38.125L18.75 36.625C18.1637 35.9211 17.4298 35.3547 16.6004 34.9659C15.7709 34.5771 14.8661 34.3753 13.95 34.375H4.375C3.71196 34.375 3.07607 34.1116 2.60723 33.6428C2.13839 33.1739 1.875 32.538 1.875 31.875V9.375C1.875 8.71196 2.13839 8.07607 2.60723 7.60723C3.07607 7.13839 3.71196 6.875 4.375 6.875H20ZM38.125 9.375V31.875C38.125 32.538 37.8616 33.1739 37.3928 33.6428C36.9239 34.1116 36.288 34.375 35.625 34.375H26.05C25.1339 34.3753 24.2291 34.5771 23.3996 34.9659C22.5702 35.3547 21.8363 35.9211 21.25 36.625L20 38.125V6.875H35.625C36.288 6.875 36.9239 7.13839 37.3928 7.60723C37.8616 8.07607 38.125 8.71196 38.125 9.375Z" fill="white"/>
<path d="M30.625 10.625C30.624 12.1811 30.2812 13.7181 29.6209 15.1271C28.9605 16.5362 27.9987 17.783 26.8034 18.7795C25.6081 19.7759 24.2086 20.4976 22.7037 20.8936C21.1987 21.2896 19.6252 21.3501 18.0943 21.071C16.5634 20.7919 15.1125 20.1799 13.8442 19.2783C12.5758 18.3768 11.521 17.2076 10.7542 15.8534C9.98751 14.4993 9.52758 12.9933 9.40696 11.4418C9.28635 9.89037 9.508 8.33136 10.0562 6.875H29.9375C30.3963 8.0718 30.6294 9.34326 30.625 10.625Z" fill="#E6E6E6"/>
<path d="M28.75 10.625C28.7497 12.5536 28.1122 14.4281 26.9367 15.957C25.7612 17.4859 24.1135 18.5836 22.2497 19.0795C20.386 19.5753 18.4106 19.4416 16.6307 18.6989C14.8508 17.9563 13.3662 16.6464 12.4075 14.973C11.4489 13.2995 11.07 11.3562 11.3297 9.44519C11.5895 7.53417 12.4733 5.7625 13.8438 4.40561C15.2143 3.04872 16.9948 2.18264 18.9083 1.94201C20.8218 1.70138 22.7612 2.09969 24.425 3.07501C25.7418 3.84691 26.8338 4.94985 27.5925 6.2743C28.3512 7.59875 28.7503 9.09863 28.75 10.625Z" fill="#FFA88A"/>
<path d="M25.6254 7.50002C25.6256 9.04099 25.2189 10.5547 24.4464 11.888C23.6738 13.2213 22.5629 14.327 21.2259 15.0932C19.8889 15.8594 18.3733 16.2589 16.8323 16.2513C15.2914 16.2437 13.7798 15.8293 12.4504 15.05C11.4702 13.3796 11.0719 11.4312 11.318 9.51019C11.564 7.58915 12.4404 5.80401 13.8099 4.43453C15.1794 3.06505 16.9645 2.18863 18.8856 1.9426C20.8066 1.69658 22.755 2.09485 24.4254 3.07502C25.2116 4.41714 25.6258 5.94458 25.6254 7.50002Z" fill="#FD9467"/>
<path d="M26.05 35H35.625C36.4538 35 37.2487 34.6708 37.8347 34.0847C38.4208 33.4987 38.75 32.7038 38.75 31.875V9.375C38.75 8.5462 38.4208 7.75134 37.8347 7.16529C37.2487 6.57924 36.4538 6.25 35.625 6.25H28.2875C27.4906 4.743 26.2978 3.48183 24.8375 2.60218C23.3772 1.72252 21.7048 1.25769 20 1.25769C18.2952 1.25769 16.6228 1.72252 15.1625 2.60218C13.7022 3.48183 12.5094 4.743 11.7125 6.25H4.375C3.5462 6.25 2.75134 6.57924 2.16529 7.16529C1.57924 7.75134 1.25 8.5462 1.25 9.375V31.875C1.25 32.7038 1.57924 33.4987 2.16529 34.0847C2.75134 34.6708 3.5462 35 4.375 35H13.95C14.7743 35.0005 15.5883 35.1821 16.3346 35.5321C17.0809 35.882 17.7412 36.3917 18.2687 37.025L18.6688 37.5H3.125C2.95924 37.5 2.80027 37.4342 2.68306 37.3169C2.56585 37.1997 2.5 37.0408 2.5 36.875V36.25C2.5 36.0842 2.43415 35.9253 2.31694 35.8081C2.19973 35.6908 2.04076 35.625 1.875 35.625C1.70924 35.625 1.55027 35.6908 1.43306 35.8081C1.31585 35.9253 1.25 36.0842 1.25 36.25V36.875C1.25 37.3723 1.44754 37.8492 1.79917 38.2008C2.15081 38.5525 2.62772 38.75 3.125 38.75H36.875C37.3723 38.75 37.8492 38.5525 38.2008 38.2008C38.5525 37.8492 38.75 37.3723 38.75 36.875V36.25C38.75 36.0842 38.6842 35.9253 38.5669 35.8081C38.4497 35.6908 38.2908 35.625 38.125 35.625C37.9592 35.625 37.8003 35.6908 37.6831 35.8081C37.5658 35.9253 37.5 36.0842 37.5 36.25V36.875C37.5 37.0408 37.4342 37.1997 37.3169 37.3169C37.1997 37.4342 37.0408 37.5 36.875 37.5H21.3313L21.7313 37.025C22.2588 36.3917 22.9191 35.882 23.6654 35.5321C24.4116 35.1821 25.2257 35.0005 26.05 35ZM19.375 20V36.4L19.2313 36.25C18.5886 35.471 17.7822 34.8431 16.8694 34.411C15.9566 33.9789 14.9599 33.7532 13.95 33.75H4.375C3.87772 33.75 3.40081 33.5525 3.04917 33.2008C2.69754 32.8492 2.5 32.3723 2.5 31.875V9.375C2.5 8.87772 2.69754 8.40081 3.04917 8.04918C3.40081 7.69754 3.87772 7.5 4.375 7.5H11.175C10.8132 8.50224 10.6271 9.55944 10.625 10.625C10.6197 13.0068 11.5212 15.3013 13.1463 17.0426C14.7715 18.7838 16.9985 19.8412 19.375 20ZM11.875 10.625C11.875 9.01803 12.3515 7.44714 13.2443 6.11099C14.1371 4.77484 15.406 3.73344 16.8907 3.11848C18.3753 2.50352 20.009 2.34262 21.5851 2.65612C23.1612 2.96963 24.6089 3.74346 25.7452 4.87976C26.8815 6.01606 27.6554 7.4638 27.9689 9.03989C28.2824 10.616 28.1215 12.2497 27.5065 13.7343C26.8916 15.219 25.8502 16.4879 24.514 17.3807C23.1779 18.2735 21.607 18.75 20 18.75C17.8451 18.75 15.7785 17.894 14.2548 16.3702C12.731 14.8465 11.875 12.7799 11.875 10.625ZM20.7687 36.25L20.625 36.425V20C20.625 20 20.625 20 20.625 19.9688C22.9961 19.8103 25.2186 18.7573 26.843 17.0227C28.4674 15.2882 29.3724 13.0014 29.375 10.625C29.3729 9.55944 29.1868 8.50224 28.825 7.5H35.625C36.1223 7.5 36.5992 7.69754 36.9508 8.04918C37.3025 8.40081 37.5 8.87772 37.5 9.375V31.875C37.5 32.3723 37.3025 32.8492 36.9508 33.2008C36.5992 33.5525 36.1223 33.75 35.625 33.75H26.05C25.0401 33.7532 24.0434 33.9789 23.1306 34.411C22.2178 34.8431 21.4114 35.471 20.7687 36.25Z" fill="#4E5B5F"/>
<path d="M5.625 12.5H7.5C7.66576 12.5 7.82473 12.4342 7.94194 12.3169C8.05915 12.1997 8.125 12.0408 8.125 11.875C8.125 11.7092 8.05915 11.5503 7.94194 11.4331C7.82473 11.3158 7.66576 11.25 7.5 11.25H5.625C5.45924 11.25 5.30027 11.3158 5.18306 11.4331C5.06585 11.5503 5 11.7092 5 11.875C5 12.0408 5.06585 12.1997 5.18306 12.3169C5.30027 12.4342 5.45924 12.5 5.625 12.5ZM5.625 16.875H10C10.1658 16.875 10.3247 16.8092 10.4419 16.6919C10.5592 16.5747 10.625 16.4158 10.625 16.25C10.625 16.0842 10.5592 15.9253 10.4419 15.8081C10.3247 15.6908 10.1658 15.625 10 15.625H5.625C5.45924 15.625 5.30027 15.6908 5.18306 15.8081C5.06585 15.9253 5 16.0842 5 16.25C5 16.4158 5.06585 16.5747 5.18306 16.6919C5.30027 16.8092 5.45924 16.875 5.625 16.875ZM5.625 21.25H13.75C13.9158 21.25 14.0747 21.1842 14.1919 21.0669C14.3092 20.9497 14.375 20.7908 14.375 20.625C14.375 20.4592 14.3092 20.3003 14.1919 20.1831C14.0747 20.0658 13.9158 20 13.75 20H5.625C5.45924 20 5.30027 20.0658 5.18306 20.1831C5.06585 20.3003 5 20.4592 5 20.625C5 20.7908 5.06585 20.9497 5.18306 21.0669C5.30027 21.1842 5.45924 21.25 5.625 21.25ZM16.25 24.375H5.625C5.45924 24.375 5.30027 24.4408 5.18306 24.5581C5.06585 24.6753 5 24.8342 5 25C5 25.1658 5.06585 25.3247 5.18306 25.4419C5.30027 25.5592 5.45924 25.625 5.625 25.625H16.25C16.4158 25.625 16.5747 25.5592 16.6919 25.4419C16.8092 25.3247 16.875 25.1658 16.875 25C16.875 24.8342 16.8092 24.6753 16.6919 24.5581C16.5747 24.4408 16.4158 24.375 16.25 24.375ZM16.25 28.75H5.625C5.45924 28.75 5.30027 28.8158 5.18306 28.9331C5.06585 29.0503 5 29.2092 5 29.375C5 29.5408 5.06585 29.6997 5.18306 29.8169C5.30027 29.9342 5.45924 30 5.625 30H16.25C16.4158 30 16.5747 29.9342 16.6919 29.8169C16.8092 29.6997 16.875 29.5408 16.875 29.375C16.875 29.2092 16.8092 29.0503 16.6919 28.9331C16.5747 28.8158 16.4158 28.75 16.25 28.75ZM32.5 12.5H34.375C34.5408 12.5 34.6997 12.4342 34.8169 12.3169C34.9342 12.1997 35 12.0408 35 11.875C35 11.7092 34.9342 11.5503 34.8169 11.4331C34.6997 11.3158 34.5408 11.25 34.375 11.25H32.5C32.3342 11.25 32.1753 11.3158 32.0581 11.4331C31.9408 11.5503 31.875 11.7092 31.875 11.875C31.875 12.0408 31.9408 12.1997 32.0581 12.3169C32.1753 12.4342 32.3342 12.5 32.5 12.5ZM30.625 16.875H34.375C34.5408 16.875 34.6997 16.8092 34.8169 16.6919C34.9342 16.5747 35 16.4158 35 16.25C35 16.0842 34.9342 15.9253 34.8169 15.8081C34.6997 15.6908 34.5408 15.625 34.375 15.625H30.625C30.4592 15.625 30.3003 15.6908 30.1831 15.8081C30.0658 15.9253 30 16.0842 30 16.25C30 16.4158 30.0658 16.5747 30.1831 16.6919C30.3003 16.8092 30.4592 16.875 30.625 16.875ZM34.375 20H26.25C26.0842 20 25.9253 20.0658 25.8081 20.1831C25.6908 20.3003 25.625 20.4592 25.625 20.625C25.625 20.7908 25.6908 20.9497 25.8081 21.0669C25.9253 21.1842 26.0842 21.25 26.25 21.25H34.375C34.5408 21.25 34.6997 21.1842 34.8169 21.0669C34.9342 20.9497 35 20.7908 35 20.625C35 20.4592 34.9342 20.3003 34.8169 20.1831C34.6997 20.0658 34.5408 20 34.375 20ZM34.375 24.375H23.75C23.5842 24.375 23.4253 24.4408 23.3081 24.5581C23.1908 24.6753 23.125 24.8342 23.125 25C23.125 25.1658 23.1908 25.3247 23.3081 25.4419C23.4253 25.5592 23.5842 25.625 23.75 25.625H34.375C34.5408 25.625 34.6997 25.5592 34.8169 25.4419C34.9342 25.3247 35 25.1658 35 25C35 24.8342 34.9342 24.6753 34.8169 24.5581C34.6997 24.4408 34.5408 24.375 34.375 24.375ZM34.375 28.75H23.75C23.5842 28.75 23.4253 28.8158 23.3081 28.9331C23.1908 29.0503 23.125 29.2092 23.125 29.375C23.125 29.5408 23.1908 29.6997 23.3081 29.8169C23.4253 29.9342 23.5842 30 23.75 30H34.375C34.5408 30 34.6997 29.9342 34.8169 29.8169C34.9342 29.6997 35 29.5408 35 29.375C35 29.2092 34.9342 29.0503 34.8169 28.9331C34.6997 28.8158 34.5408 28.75 34.375 28.75Z" fill="#61C3B6"/>
<path d="M25.9311 8.20623L20.3061 5.08123C20.2111 5.02638 20.1033 4.9975 19.9936 4.9975C19.8839 4.9975 19.7761 5.02638 19.6811 5.08123L14.0561 8.20623C13.9599 8.26074 13.8799 8.33979 13.8242 8.43532C13.7686 8.53084 13.7393 8.63942 13.7393 8.74998C13.7393 8.86054 13.7686 8.96912 13.8242 9.06465C13.8799 9.16017 13.9599 9.23922 14.0561 9.29373L15.6249 10.1625V13.75C15.6252 13.8654 15.6575 13.9785 15.7182 14.0766C15.7789 14.1748 15.8655 14.2543 15.9686 14.3062L19.7186 16.1812C19.8058 16.2252 19.9022 16.2481 19.9999 16.2481C20.0975 16.2481 20.1939 16.2252 20.2811 16.1812L24.0311 14.3062C24.1342 14.2543 24.2208 14.1748 24.2815 14.0766C24.3422 13.9785 24.3745 13.8654 24.3749 13.75V10.1625L25.9311 9.29373C26.0273 9.23922 26.1073 9.16017 26.163 9.06465C26.2186 8.96912 26.2479 8.86054 26.2479 8.74998C26.2479 8.63942 26.2186 8.53084 26.163 8.43532C26.1073 8.33979 26.0273 8.26074 25.9311 8.20623ZM23.1249 13.3625L19.9999 14.925L16.8749 13.3625V10.8625L19.6936 12.425C19.7886 12.4798 19.8964 12.5087 20.0061 12.5087C20.1158 12.5087 20.2236 12.4798 20.3186 12.425L23.1249 10.8562V13.3625Z" fill="white"/>
</svg>
