<svg width="40" height="40" viewBox="0 0 40 40" fill="none" xmlns="http://www.w3.org/2000/svg">
<path fill-rule="evenodd" clip-rule="evenodd" d="M29.0793 17.4106V10.7557H26.3142V17.4106H29.0793ZM37.8901 21.5817H36.5544V23.0111C36.5544 24.2999 35.4999 25.3544 34.2111 25.3544H28.845L32.5005 28.9865C32.5708 28.963 32.6411 28.963 32.7114 28.963C33.8596 28.963 34.7969 29.9004 34.7969 31.0251C34.7969 32.1733 33.8596 33.0872 32.7114 33.0872C31.5866 33.0872 30.6493 32.1733 30.6493 31.0251C30.6493 30.9548 30.6493 30.8845 30.6727 30.8142L28.9621 29.1036H11.0125L9.32533 30.7908C9.32533 30.8845 9.32533 30.9548 9.32533 31.0251C9.32533 32.1733 8.41145 33.0872 7.26323 33.0872C6.13845 33.0872 5.20114 32.1733 5.20114 31.0251C5.20114 29.9004 6.13845 28.963 7.26323 28.963C7.33353 28.963 7.42726 28.963 7.49756 28.963L11.1297 25.3544H5.78696C4.49815 25.3544 3.44367 24.2999 3.44367 23.0111V21.5817H2.10799C0.959778 21.5817 0.0224609 20.6443 0.0224609 19.4961C0.0224609 18.512 0.702016 17.6918 1.63933 17.4809V7.35788C1.63933 7.10012 1.85023 6.88922 2.10799 6.88922H4.14666C5.55263 6.88922 6.67741 8.014 6.67741 9.41998V12.5834H7.84906C8.99727 12.5834 9.93459 13.5442 9.93459 14.6924V17.4106H10.9891V13.3098C10.9891 11.3883 12.5591 9.81834 14.4806 9.81834H29.876C31.7975 9.81834 33.3441 11.3883 33.3441 13.3098V17.4106H34.1877V13.5207C34.1877 12.3725 35.125 11.4586 36.2498 11.4586H37.8432C38.101 11.4586 38.3119 11.6695 38.3119 11.9273V17.4575C39.2492 17.6684 39.9756 18.512 39.9756 19.4961C39.9756 20.6443 39.0383 21.5817 37.8901 21.5817ZM35.6171 21.5817H4.38098V23.0111C4.38098 23.7844 5.01367 24.417 5.78696 24.417H12.1373C12.1841 24.3936 12.231 24.3702 12.3013 24.3702H14.6446C14.7149 24.3702 14.7618 24.3936 14.8086 24.417H25.1894C25.2363 24.3936 25.2831 24.3936 25.33 24.3936H27.6967C27.7436 24.3936 27.7905 24.3936 27.8373 24.417H34.2111C34.9844 24.417 35.6171 23.7844 35.6171 23.0111V21.5817ZM2.10799 18.3479C1.4753 18.3479 0.959778 18.8634 0.959778 19.4961C0.959778 20.1288 1.4753 20.6443 2.10799 20.6443H36.0857H37.8901C38.5228 20.6443 39.0383 20.1288 39.0383 19.4961C39.0383 18.8634 38.5228 18.3479 37.8901 18.3479H37.8432H34.6563H32.8754H29.5479H25.8455H22.1666H18.4876H14.8086H11.4577H9.46593H6.20875H2.10799ZM6.67741 13.5207V17.4106H8.99727V14.6924C8.99727 14.0597 8.48175 13.5207 7.82562 13.5207H6.67741ZM2.57665 17.4106H5.74009V13.0521V9.41998C5.74009 8.52953 5.01367 7.82654 4.14666 7.82654H2.57665V17.4106ZM35.125 17.4106H37.398V12.396H36.2732C35.6405 12.396 35.1484 12.9115 35.1484 13.5207V17.4106H35.125ZM30.0166 10.7791V17.4106H32.4302V13.3098C32.4302 11.9507 31.3523 10.826 30.0166 10.7791ZM11.9264 17.4106H14.34V10.7791C13.0043 10.826 11.9264 11.9507 11.9264 13.3098V17.4106ZM15.2773 17.4106H18.0189V10.7557H15.2773V17.4106ZM18.9563 17.4106H21.6979V10.7557H18.9563V17.4106ZM22.6352 17.4106H25.3769V10.7557H22.6352V17.4106ZM27.5327 25.3544H26.5017L27.6733 26.5026C27.7436 26.526 27.8139 26.5494 27.8608 26.6197C27.9311 26.6666 27.9779 26.7369 28.0014 26.8306L31.0242 29.8535C31.1648 29.6426 31.3288 29.4786 31.5397 29.338L27.5327 25.3544ZM25.166 25.3544H14.8086L13.6604 26.4791H26.3142L25.166 25.3544ZM13.473 25.3544H12.4653L8.45831 29.338C8.64578 29.4786 8.80981 29.6426 8.9504 29.8301L10.3329 28.4709C10.3798 28.3538 10.4735 28.26 10.6141 28.2132L13.473 25.3544ZM6.67741 24.2062C5.99786 24.2062 5.4589 23.6672 5.4589 23.0111C5.4589 22.3315 5.99786 21.7926 6.67741 21.7926C7.33353 21.7926 7.87249 22.3315 7.87249 23.0111C7.87249 23.6672 7.33353 24.2062 6.67741 24.2062ZM6.67741 22.7299C6.51338 22.7299 6.39622 22.847 6.39622 23.0111C6.39622 23.1517 6.51338 23.2688 6.67741 23.2688C6.81801 23.2688 6.93517 23.1517 6.93517 23.0111C6.93517 22.847 6.81801 22.7299 6.67741 22.7299ZM33.3206 24.2062C32.6645 24.2062 32.1256 23.6672 32.1256 23.0111C32.1256 22.3315 32.6645 21.7926 33.3206 21.7926C33.9768 21.7926 34.5157 22.3315 34.5157 23.0111C34.5157 23.6672 33.9768 24.2062 33.3206 24.2062ZM33.3206 22.7299C33.18 22.7299 33.0629 22.847 33.0629 23.0111C33.0629 23.1517 33.18 23.2688 33.3206 23.2688C33.4612 23.2688 33.5784 23.1517 33.5784 23.0111C33.5784 22.847 33.4612 22.7299 33.3206 22.7299ZM7.26323 29.9004C6.65398 29.9004 6.13845 30.3924 6.13845 31.0251C6.13845 31.6578 6.65398 32.1499 7.26323 32.1499C7.89592 32.1499 8.38801 31.6578 8.38801 31.0251C8.38801 30.9548 8.38801 30.8845 8.38801 30.8142C8.36458 30.7674 8.36458 30.7439 8.36458 30.6971C8.24742 30.3221 7.94279 30.0409 7.56786 29.9238C7.54443 29.9238 7.521 29.9238 7.521 29.9238C7.42726 29.9004 7.35697 29.9004 7.26323 29.9004ZM32.7114 29.9004C32.6645 29.9004 32.5942 29.9004 32.5239 29.9004C32.4771 29.9238 32.4302 29.9472 32.3599 29.9472C32.0084 30.0644 31.7506 30.3456 31.6335 30.6971C31.6335 30.7439 31.6335 30.7908 31.61 30.8377C31.5866 30.8845 31.5866 30.9548 31.5866 31.0251C31.5866 31.6578 32.1021 32.1499 32.7114 32.1499C33.3441 32.1499 33.8596 31.6578 33.8596 31.0251C33.8596 30.3924 33.3441 29.9004 32.7114 29.9004ZM27.2515 27.4165H12.7231L11.9733 28.1663H28.0248L27.2515 27.4165Z" fill="#092F6A"/>
<path fill-rule="evenodd" clip-rule="evenodd" d="M6.93642 23.0111C6.93642 22.8471 6.81925 22.7299 6.67866 22.7299C6.51463 22.7299 6.39746 22.8471 6.39746 23.0111C6.39746 23.1517 6.51463 23.2689 6.67866 23.2689C6.81925 23.2689 6.93642 23.1517 6.93642 23.0111ZM33.0641 23.0111C33.0641 23.1517 33.1813 23.2689 33.3219 23.2689C33.4625 23.2689 33.5797 23.1517 33.5797 23.0111C33.5797 22.8471 33.4625 22.7299 33.3219 22.7299C33.1813 22.7299 33.0641 22.8471 33.0641 23.0111Z" fill="white"/>
<path fill-rule="evenodd" clip-rule="evenodd" d="M28.0252 28.1664L27.2519 27.4165H12.7235L11.9736 28.1664H28.0252Z" fill="#42A5F5"/>
<path fill-rule="evenodd" clip-rule="evenodd" d="M28.0022 26.8306L31.0251 29.8535C31.1657 29.6426 31.3297 29.4786 31.5406 29.338L27.5336 25.3544H26.5025L27.6742 26.5026C27.8148 26.5494 27.9554 26.6666 28.0022 26.8306ZM10.615 28.2132L13.4738 25.3544H12.4662L8.45916 29.338C8.64663 29.4786 8.81066 29.6426 8.95126 29.8301L10.3338 28.4709C10.3807 28.3538 10.4744 28.26 10.615 28.2132ZM8.36543 30.6971C8.24827 30.3221 7.94364 30.041 7.56871 29.9238C7.54528 29.9238 7.52185 29.9238 7.52185 29.9238C7.42812 29.9004 7.35782 29.9004 7.26409 29.9004C6.65483 29.9004 6.13931 30.3924 6.13931 31.0251C6.13931 31.6578 6.65483 32.1499 7.26409 32.1499C7.89677 32.1499 8.38887 31.6578 8.38887 31.0251C8.38887 30.9548 8.38887 30.8845 8.38887 30.8142C8.36543 30.7674 8.36543 30.7439 8.36543 30.6971ZM32.3607 29.9472C32.0093 30.0644 31.7515 30.3456 31.6343 30.6971C31.6343 30.7439 31.6343 30.7908 31.6109 30.8377C31.5875 30.8845 31.5875 30.9548 31.5875 31.0251C31.5875 31.6578 32.103 32.1499 32.7122 32.1499C33.3449 32.1499 33.8605 31.6578 33.8605 31.0251C33.8605 30.3924 33.3449 29.9004 32.7122 29.9004C32.6654 29.9004 32.5951 29.9004 32.5248 29.9004C32.4779 29.9238 32.431 29.9472 32.3607 29.9472ZM27.8382 24.417H34.2119C34.9852 24.417 35.6179 23.7844 35.6179 23.0111V21.5817H4.38184V23.0111C4.38184 23.7844 5.01452 24.417 5.78781 24.417H12.1381C12.185 24.3936 12.2319 24.3702 12.3022 24.3702H14.6455C14.7158 24.3702 14.7626 24.3936 14.8095 24.417H25.1903C25.2371 24.3936 25.284 24.3936 25.3309 24.3936H27.6976C27.7445 24.3936 27.7913 24.3936 27.8382 24.417ZM6.67826 21.7926C7.33438 21.7926 7.87334 22.3315 7.87334 23.0111C7.87334 23.6672 7.33438 24.2062 6.67826 24.2062C5.99871 24.2062 5.45975 23.6672 5.45975 23.0111C5.45975 22.3315 5.99871 21.7926 6.67826 21.7926ZM33.3215 24.2062C32.6654 24.2062 32.1264 23.6672 32.1264 23.0111C32.1264 22.3315 32.6654 21.7926 33.3215 21.7926C33.9776 21.7926 34.5166 22.3315 34.5166 23.0111C34.5166 23.6672 33.9776 24.2062 33.3215 24.2062Z" fill="#42A5F5"/>
<path fill-rule="evenodd" clip-rule="evenodd" d="M2.10915 20.6443H36.0869H37.8912C38.5239 20.6443 39.0394 20.1288 39.0394 19.4961C39.0394 18.8634 38.5239 18.3479 37.8912 18.3479H37.8444H34.6575H32.8766H29.5491H25.8467H22.1677H18.4888H14.8098H11.4589H9.46709H6.20991H2.10915C1.47646 18.3479 0.960938 18.8634 0.960938 19.4961C0.960938 20.1288 1.47646 20.6443 2.10915 20.6443Z" fill="white"/>
<path fill-rule="evenodd" clip-rule="evenodd" d="M35.1494 13.5208V17.4106H37.3989V12.396H36.2742C35.6415 12.396 35.1494 12.9115 35.1494 13.5208ZM32.4312 17.4106V13.3099C32.4312 11.9508 31.3533 10.826 30.0176 10.7791V17.4106H32.4312Z" fill="#42A5F5"/>
<path fill-rule="evenodd" clip-rule="evenodd" d="M29.0805 17.4106V10.7557H26.3154V17.4106H29.0805Z" fill="#42A5F5"/>
<path fill-rule="evenodd" clip-rule="evenodd" d="M25.3774 17.4106V10.7557H22.6357V17.4106H25.3774Z" fill="#42A5F5"/>
<path fill-rule="evenodd" clip-rule="evenodd" d="M21.6987 17.4106V10.7557H18.957V17.4106H21.6987Z" fill="#42A5F5"/>
<path fill-rule="evenodd" clip-rule="evenodd" d="M18.019 17.4106V10.7557H15.2773V17.4106H18.019Z" fill="#42A5F5"/>
<path fill-rule="evenodd" clip-rule="evenodd" d="M14.3405 17.4106V10.7791C13.0048 10.826 11.9269 11.9507 11.9269 13.3098V17.4106H14.3405ZM8.99777 14.6924C8.99777 14.0597 8.48224 13.5207 7.82612 13.5207H6.67791V17.4106H8.99777V14.6924ZM5.74059 17.4106V13.0521V9.41998C5.74059 8.52953 5.01417 7.82654 4.14715 7.82654H2.57715V17.4106H5.74059Z" fill="#42A5F5"/>
</svg>
