<svg width="40" height="40" viewBox="0 0 40 40" fill="none" xmlns="http://www.w3.org/2000/svg">
<path d="M27.5772 22H12.4209C11.6366 22 11 22.6563 11 23.4648V35.5566C11 36.4102 11.4206 37.1855 12.1235 37.6328C12.8263 38.0801 13.6883 38.1191 14.4291 37.7402L18.94 35.4141C19.6031 35.0742 20.3969 35.0742 21.0581 35.4141L25.5728 37.7402C25.91 37.9141 26.27 38 26.6318 38C27.0638 38 27.4938 37.8789 27.8765 37.6328C28.5794 37.1855 29 36.4082 29 35.5566V23.4648C29 22.6563 28.3615 22 27.5772 22Z" fill="#FD6C77"/>
<path d="M20 27C27.1797 27 33 21.1797 33 14C33 6.8203 27.1797 1 20 1C12.8203 1 7 6.8203 7 14C7 21.1797 12.8203 27 20 27Z" fill="#FFD15B"/>
<path d="M20 21C16.1416 21 13 17.8584 13 14C13 10.1416 16.1416 7 20 7C23.8584 7 27 10.1416 27 14C27 17.8584 23.8584 21 20 21ZM20 9.8C17.6853 9.8 15.8 11.6853 15.8 14C15.8 16.3147 17.6853 18.2 20 18.2C22.3147 18.2 24.2 16.3147 24.2 14C24.2 11.6853 22.3147 9.8 20 9.8Z" fill="#FF9F69"/>
</svg>
