<svg width="51" height="154" viewBox="0 0 51 154" fill="none" xmlns="http://www.w3.org/2000/svg">
<circle cx="5.1" cy="5.6" r="5.1" fill="#5884FF"/>
<circle cx="5.1" cy="26" r="5.1" fill="#5884FF"/>
<circle cx="5.1" cy="46.4" r="5.1" fill="#5884FF"/>
<circle cx="5.1" cy="66.8" r="5.1" fill="#5884FF"/>
<circle cx="5.1" cy="87.2" r="5.1" fill="#5884FF"/>
<circle cx="5.1" cy="107.6" r="5.1" fill="#5884FF"/>
<circle cx="5.1" cy="128" r="5.1" fill="#5884FF"/>
<circle cx="5.1" cy="148.4" r="5.1" fill="#5884FF"/>
<circle cx="25.4999" cy="5.6" r="5.1" fill="#5884FF"/>
<circle cx="25.4999" cy="26" r="5.1" fill="#5884FF"/>
<circle cx="25.4999" cy="46.4" r="5.1" fill="#5884FF"/>
<circle cx="25.4999" cy="66.8" r="5.1" fill="#5884FF"/>
<circle cx="25.4999" cy="87.2" r="5.1" fill="#5884FF"/>
<circle cx="25.4999" cy="107.6" r="5.1" fill="#5884FF"/>
<circle cx="25.4999" cy="128" r="5.1" fill="#5884FF"/>
<circle cx="25.4999" cy="148.4" r="5.1" fill="#5884FF"/>
<circle cx="45.8998" cy="5.6" r="5.1" fill="#5884FF"/>
<circle cx="45.8998" cy="26" r="5.1" fill="#5884FF"/>
<circle cx="45.8998" cy="46.4" r="5.1" fill="#5884FF"/>
<circle cx="45.8998" cy="66.8" r="5.1" fill="#5884FF"/>
<circle cx="45.8998" cy="87.2" r="5.1" fill="#5884FF"/>
<circle cx="45.8998" cy="107.6" r="5.1" fill="#5884FF"/>
<circle cx="45.8998" cy="128" r="5.1" fill="#5884FF"/>
<circle cx="45.8998" cy="148.4" r="5.1" fill="#5884FF"/>
</svg>
