<svg width="228" height="230" viewBox="0 0 228 230" fill="none" xmlns="http://www.w3.org/2000/svg">
<path d="M1.23722 0.0285431C0.700695 -0.102468 0.159554 0.226263 0.0285431 0.762784C-0.102468 1.2993 0.226263 1.84045 0.762784 1.97146L1.23722 0.0285431ZM189.5 114L188.673 114.562L189.5 114ZM221.499 229.366C221.977 229.642 222.589 229.479 222.865 229.001L227.375 221.212C227.652 220.734 227.488 220.123 227.01 219.846C226.532 219.569 225.921 219.732 225.644 220.21L221.636 227.134L214.712 223.125C214.234 222.849 213.622 223.012 213.346 223.49C213.069 223.968 213.232 224.579 213.71 224.856L221.499 229.366ZM4.61395 2.9433C5.14845 3.08233 5.69445 2.76175 5.83349 2.22725C5.97252 1.69275 5.65194 1.14675 5.11744 1.00771L4.61395 2.9433ZM12.831 3.12024C12.3001 2.96799 11.7463 3.27495 11.5941 3.80583C11.4418 4.33672 11.7488 4.8905 12.2797 5.04275L12.831 3.12024ZM19.9466 7.33101C20.4741 7.4944 21.0342 7.19919 21.1976 6.67163C21.361 6.14407 21.0658 5.58394 20.5383 5.42054L19.9466 7.33101ZM28.1568 7.86036C27.6325 7.68702 27.0668 7.9716 26.8935 8.49598C26.7202 9.02036 27.0047 9.58597 27.5291 9.7593L28.1568 7.86036ZM35.0999 12.3375C35.6211 12.5201 36.1917 12.2457 36.3744 11.7245C36.557 11.2033 36.2826 10.6327 35.7614 10.45L35.0999 12.3375ZM43.3089 13.1681C42.7909 12.9766 42.2157 13.2412 42.0242 13.7592C41.8326 14.2772 42.0973 14.8524 42.6153 15.044L43.3089 13.1681ZM50.0682 17.8716C50.5829 18.0718 51.1625 17.8169 51.3627 17.3022C51.5629 16.7875 51.308 16.2079 50.7933 16.0077L50.0682 17.8716ZM58.2378 18.976C57.7265 18.7671 57.1428 19.0123 56.9339 19.5236C56.7251 20.0348 56.9702 20.6186 57.4815 20.8275L58.2378 18.976ZM64.8478 23.9093C65.3555 24.1268 65.9433 23.8916 66.1608 23.3839C66.3782 22.8762 66.143 22.2884 65.6353 22.0709L64.8478 23.9093ZM72.9805 25.2923C72.4766 25.0662 71.8848 25.2912 71.6586 25.7951C71.4324 26.2989 71.6575 26.8907 72.1614 27.1169L72.9805 25.2923ZM79.4175 30.4513C79.9172 30.6863 80.5129 30.4717 80.748 29.9719C80.983 29.4722 80.7684 28.8765 80.2686 28.6414L79.4175 30.4513ZM87.4954 32.1205C87 31.8764 86.4005 32.0801 86.1564 32.5755C85.9123 33.0709 86.116 33.6704 86.6114 33.9146L87.4954 32.1205ZM93.7385 37.5099C94.2292 37.7633 94.8324 37.571 95.0859 37.0803C95.3393 36.5896 95.1469 35.9863 94.6562 35.7329L93.7385 37.5099ZM101.746 39.4826C101.26 39.2196 100.653 39.4 100.39 39.8856C100.127 40.3712 100.308 40.9782 100.793 41.2412L101.746 39.4826ZM107.77 45.1129C108.25 45.3859 108.861 45.218 109.134 44.7379C109.407 44.2578 109.239 43.6473 108.759 43.3743L107.77 45.1129ZM115.688 47.4133C115.214 47.13 114.6 47.2846 114.316 47.7587C114.033 48.2327 114.187 48.8467 114.662 49.1301L115.688 47.4133ZM121.461 53.2992C121.929 53.5933 122.546 53.4528 122.84 52.9853C123.134 52.5178 122.994 51.9005 122.526 51.6064L121.461 53.2992ZM129.265 55.9602C128.805 55.6548 128.185 55.7803 127.879 56.2405C127.574 56.7007 127.699 57.3213 128.16 57.6267L129.265 55.9602ZM134.747 62.1194C135.199 62.4366 135.823 62.3271 136.14 61.8749C136.457 61.4227 136.347 60.7991 135.895 60.482L134.747 62.1194ZM142.404 65.1797C141.961 64.8502 141.334 64.9426 141.005 65.3858C140.675 65.8291 140.768 66.4555 141.211 66.785L142.404 65.1797ZM147.538 71.6312C147.972 71.9735 148.601 71.8996 148.943 71.4662C149.285 71.0328 149.211 70.4039 148.778 70.0616L147.538 71.6312ZM155.002 75.1368C154.58 74.781 153.949 74.835 153.593 75.2574C153.237 75.6798 153.291 76.3107 153.714 76.6665L155.002 75.1368ZM159.72 81.8994C160.13 82.2693 160.762 82.2367 161.132 81.8266C161.502 81.4165 161.469 80.7841 161.059 80.4142L159.72 81.8994ZM166.929 85.9033C166.532 85.5187 165.899 85.5282 165.515 85.9245C165.13 86.3208 165.14 86.9539 165.536 87.3385L166.929 85.9033ZM171.14 92.9923C171.52 93.3922 172.153 93.4077 172.553 93.0268C172.953 92.6459 172.969 92.0129 172.588 91.613L171.14 92.9923ZM178.01 97.5518C177.647 97.136 177.015 97.0936 176.599 97.4572C176.184 97.8207 176.141 98.4524 176.505 98.8682L178.01 97.5518ZM181.602 104.973C181.946 105.405 182.576 105.476 183.008 105.132C183.44 104.788 183.511 104.159 183.167 103.727L181.602 104.973ZM188.025 110.143C187.703 109.695 187.078 109.592 186.629 109.915C186.181 110.237 186.078 110.862 186.4 111.31L188.025 110.143ZM190.898 118.107C191.176 118.584 191.789 118.746 192.266 118.468C192.743 118.19 192.905 117.577 192.626 117.1L190.898 118.107ZM196.582 124.787C196.352 124.285 195.758 124.065 195.256 124.295C194.754 124.526 194.534 125.119 194.764 125.621L196.582 124.787ZM198.033 133.447C198.23 133.963 198.808 134.222 199.324 134.024C199.84 133.827 200.098 133.249 199.901 132.733L198.033 133.447ZM202.772 140.825C202.599 140.301 202.033 140.016 201.509 140.189C200.985 140.363 200.7 140.928 200.873 141.453L202.772 140.825ZM203.395 149.58C203.55 150.111 204.106 150.415 204.636 150.26C205.166 150.105 205.47 149.549 205.315 149.019L203.395 149.58ZM207.606 157.28C207.465 156.746 206.918 156.427 206.384 156.568C205.85 156.709 205.531 157.256 205.672 157.79L207.606 157.28ZM207.755 166.057C207.885 166.594 208.425 166.924 208.962 166.794C209.499 166.665 209.829 166.124 209.699 165.587L207.755 166.057ZM211.638 173.928C211.517 173.389 210.982 173.05 210.443 173.17C209.904 173.291 209.565 173.826 209.686 174.365L211.638 173.928ZM211.498 182.704C211.612 183.244 212.142 183.59 212.683 183.476C213.223 183.362 213.569 182.831 213.455 182.291L211.498 182.704ZM215.181 190.671C215.072 190.13 214.545 189.779 214.003 189.889C213.462 189.998 213.112 190.525 213.221 191.066L215.181 190.671ZM214.885 199.446C214.992 199.988 215.517 200.341 216.059 200.234C216.601 200.128 216.954 199.602 216.848 199.06L214.885 199.446ZM218.489 207.444C218.382 206.902 217.857 206.549 217.315 206.655C216.773 206.761 216.42 207.287 216.526 207.829L218.489 207.444ZM218.199 216.22C218.309 216.761 218.838 217.11 219.379 217C219.92 216.889 220.269 216.361 220.158 215.82L218.199 216.22ZM221.953 224.146C221.829 223.608 221.291 223.273 220.753 223.398C220.215 223.523 219.88 224.06 220.005 224.598L221.953 224.146ZM0.762784 1.97146C1.9989 2.2733 3.28353 2.59723 4.61395 2.9433L5.11744 1.00771C3.77775 0.659227 2.48342 0.33285 1.23722 0.0285431L0.762784 1.97146ZM12.2797 5.04275C14.7291 5.74518 17.2889 6.50786 19.9466 7.33101L20.5383 5.42054C17.8674 4.59333 15.2942 3.82663 12.831 3.12024L12.2797 5.04275ZM27.5291 9.7593C29.9899 10.5727 32.5162 11.4321 35.0999 12.3375L35.7614 10.45C33.1664 9.54068 30.6289 8.67751 28.1568 7.86036L27.5291 9.7593ZM42.6153 15.044C45.0605 15.9482 47.5468 16.8907 50.0682 17.8716L50.7933 16.0077C48.2614 15.0227 45.7645 14.0762 43.3089 13.1681L42.6153 15.044ZM57.4815 20.8275C59.9129 21.8207 62.37 22.8479 64.8478 23.9093L65.6353 22.0709C63.147 21.005 60.6795 19.9734 58.2378 18.976L57.4815 20.8275ZM72.1614 27.1169C74.5673 28.197 76.9875 29.3084 79.4175 30.4513L80.2686 28.6414C77.8277 27.4935 75.3969 26.3771 72.9805 25.2923L72.1614 27.1169ZM86.6114 33.9146C88.9834 35.0834 91.3605 36.2818 93.7385 37.5099L94.6562 35.7329C92.2667 34.4988 89.8784 33.2947 87.4954 32.1205L86.6114 33.9146ZM100.793 41.2412C103.123 42.5031 105.45 43.7937 107.77 45.1129L108.759 43.3743C106.426 42.0481 104.088 40.7509 101.746 39.4826L100.793 41.2412ZM114.662 49.1301C116.94 50.4917 119.207 51.8814 121.461 53.2992L122.526 51.6064C120.259 50.1802 117.979 48.7825 115.688 47.4133L114.662 49.1301ZM128.16 57.6267C130.374 59.0963 132.571 60.5938 134.747 62.1194L135.895 60.482C133.705 58.9462 131.494 57.4389 129.265 55.9602L128.16 57.6267ZM141.211 66.785C143.347 68.3721 145.457 69.9875 147.538 71.6312L148.778 70.0616C146.681 68.4054 144.555 66.7781 142.404 65.1797L141.211 66.785ZM153.714 76.6665C155.751 78.3819 157.754 80.1262 159.72 81.8994L161.059 80.4142C159.076 78.6254 157.056 76.8663 155.002 75.1368L153.714 76.6665ZM165.536 87.3385C167.447 89.1935 169.317 91.0781 171.14 92.9923L172.588 91.613C170.746 89.6791 168.858 87.7759 166.929 85.9033L165.536 87.3385ZM176.505 98.8682C178.257 100.872 179.958 102.907 181.602 104.973L183.167 103.727C181.503 101.637 179.782 99.5783 178.01 97.5518L176.505 98.8682ZM186.4 111.31C187.173 112.386 187.931 113.47 188.673 114.562L190.327 113.438C189.575 112.332 188.808 111.233 188.025 110.143L186.4 111.31ZM188.673 114.562C189.431 115.677 190.172 116.861 190.898 118.107L192.626 117.1C191.88 115.818 191.113 114.595 190.327 113.438L188.673 114.562ZM194.764 125.621C195.898 128.093 196.987 130.712 198.033 133.447L199.901 132.733C198.842 129.963 197.737 127.304 196.582 124.787L194.764 125.621ZM200.873 141.453C201.746 144.097 202.586 146.813 203.395 149.58L205.315 149.019C204.5 146.232 203.653 143.494 202.772 140.825L200.873 141.453ZM205.672 157.79C206.393 160.525 207.087 163.286 207.755 166.057L209.699 165.587C209.028 162.805 208.331 160.03 207.606 157.28L205.672 157.79ZM209.686 174.365C210.313 177.162 210.916 179.948 211.498 182.704L213.455 182.291C212.872 179.529 212.267 176.734 211.638 173.928L209.686 174.365ZM213.221 191.066C213.797 193.926 214.351 196.727 214.885 199.446L216.848 199.06C216.314 196.34 215.759 193.535 215.181 190.671L213.221 191.066ZM216.526 207.829C217.106 210.787 217.663 213.598 218.199 216.22L220.158 215.82C219.624 213.205 219.069 210.401 218.489 207.444L216.526 207.829ZM220.005 224.598C220.355 226.103 220.697 227.495 221.034 228.758L222.966 228.242C222.637 227.006 222.299 225.636 221.953 224.146L220.005 224.598Z" fill="#5884FF" fill-opacity="0.5"/>
</svg>
