<svg width="456" height="250" viewBox="0 0 456 250" fill="none" xmlns="http://www.w3.org/2000/svg">
<path d="M455.953 1.30345C456.12 0.777212 455.83 0.214747 455.303 0.0471539C454.777 -0.120439 454.215 0.170304 454.047 0.696546L455.953 1.30345ZM346 127.5L345.734 126.536L346 127.5ZM96 164L95.531 163.117L96 164ZM4.09984 248.936C4.34039 249.433 4.93842 249.641 5.43556 249.4L13.537 245.48C14.0341 245.24 14.2421 244.642 14.0016 244.144C13.761 243.647 13.163 243.439 12.6659 243.68L5.4646 247.164L1.98011 239.963C1.73956 239.466 1.14154 239.258 0.644391 239.498C0.147246 239.739 -0.0607615 240.337 0.179792 240.834L4.09984 248.936ZM7.57174 245.518C7.85023 245.041 7.68936 244.429 7.21244 244.15C6.73551 243.872 6.12312 244.033 5.84463 244.51L7.57174 245.518ZM10.2864 237.887C9.95919 238.332 10.0546 238.958 10.4995 239.286C10.9444 239.613 11.5704 239.517 11.8976 239.072L10.2864 237.887ZM16.6634 232.936C17.0118 232.507 16.9469 231.878 16.5183 231.529C16.0898 231.181 15.46 231.246 15.1116 231.674L16.6634 232.936ZM20.1922 225.645C19.8296 226.061 19.8733 226.693 20.2898 227.056C20.7064 227.418 21.338 227.375 21.7007 226.958L20.1922 225.645ZM26.9152 221.136C27.2891 220.729 27.2628 220.097 26.8563 219.723C26.4499 219.349 25.8173 219.375 25.4433 219.782L26.9152 221.136ZM30.8387 214.061C30.4549 214.458 30.4658 215.091 30.863 215.475C31.2601 215.859 31.8932 215.848 32.277 215.451L30.8387 214.061ZM37.7751 209.892C38.1679 209.504 38.1718 208.871 37.7836 208.478C37.3954 208.085 36.7623 208.081 36.3694 208.469L37.7751 209.892ZM42.0309 203.002C41.6293 203.381 41.611 204.014 41.9901 204.416C42.3692 204.817 43.0021 204.836 43.4037 204.457L42.0309 203.002ZM49.1514 199.155C49.5617 198.786 49.5946 198.153 49.2249 197.743C48.8552 197.333 48.2229 197.3 47.8126 197.669L49.1514 199.155ZM53.7169 192.475C53.2979 192.835 53.2498 193.466 53.6096 193.885C53.9693 194.304 54.6007 194.352 55.0197 193.993L53.7169 192.475ZM61.0163 188.974C61.4443 188.625 61.5084 187.995 61.1594 187.567C60.8105 187.139 60.1805 187.075 59.7525 187.424L61.0163 188.974ZM65.9175 182.535C65.4801 182.872 65.3988 183.5 65.7359 183.937C66.073 184.375 66.7009 184.456 67.1384 184.119L65.9175 182.535ZM73.3962 179.441C73.8436 179.118 73.9437 178.492 73.6198 178.045C73.2959 177.598 72.6707 177.498 72.2234 177.821L73.3962 179.441ZM78.6757 173.309C78.2178 173.618 78.0969 174.239 78.4057 174.697C78.7145 175.155 79.336 175.276 79.7939 174.967L78.6757 173.309ZM86.3464 170.722C86.8156 170.431 86.9598 169.814 86.6685 169.345C86.3772 168.876 85.7606 168.732 85.2914 169.023L86.3464 170.722ZM92.074 165.007C91.5926 165.278 91.4219 165.888 91.6927 166.369C91.9634 166.851 92.5731 167.021 93.0545 166.751L92.074 165.007ZM100.015 163.048C100.508 162.799 100.706 162.198 100.458 161.705C100.209 161.212 99.6076 161.013 99.1145 161.262L100.015 163.048ZM106.333 157.816C105.83 158.043 105.605 158.635 105.832 159.138C106.059 159.642 106.652 159.866 107.155 159.639L106.333 157.816ZM114.438 156.55C114.951 156.346 115.202 155.764 114.997 155.251C114.793 154.738 114.212 154.487 113.699 154.692L114.438 156.55ZM121.199 151.905C120.677 152.085 120.4 152.655 120.58 153.177C120.761 153.699 121.33 153.976 121.852 153.795L121.199 151.905ZM129.385 151.383C129.914 151.227 130.217 150.671 130.061 150.141C129.904 149.611 129.348 149.309 128.818 149.465L129.385 151.383ZM136.539 147.373C136.003 147.506 135.676 148.048 135.809 148.584C135.941 149.12 136.483 149.447 137.019 149.315L136.539 147.373ZM144.739 147.583C145.281 147.473 145.631 146.946 145.521 146.404C145.412 145.863 144.884 145.513 144.343 145.622L144.739 147.583ZM152.211 144.196C151.666 144.284 151.295 144.797 151.383 145.342C151.471 145.887 151.984 146.258 152.529 146.17L152.211 144.196ZM160.374 145.055C160.923 144.987 161.312 144.488 161.244 143.94C161.176 143.392 160.676 143.002 160.128 143.07L160.374 145.055ZM168.072 142.216C167.523 142.266 167.118 142.753 167.168 143.303C167.219 143.853 167.705 144.258 168.255 144.208L168.072 142.216ZM176.162 143.592C176.713 143.557 177.131 143.081 177.096 142.53C177.06 141.979 176.584 141.561 176.033 141.597L176.162 143.592ZM184.002 141.174C183.451 141.197 183.022 141.664 183.046 142.215C183.069 142.767 183.535 143.195 184.087 143.172L184.002 141.174ZM192.025 142.907C192.577 142.893 193.013 142.434 192.999 141.882C192.985 141.33 192.526 140.894 191.974 140.908L192.025 142.907ZM199.946 140.759C199.394 140.766 198.952 141.219 198.959 141.772C198.966 142.324 199.42 142.766 199.972 142.759L199.946 140.759ZM207.926 142.688C208.478 142.685 208.924 142.235 208.921 141.683C208.918 141.131 208.467 140.685 207.915 140.688L207.926 142.688ZM215.881 140.66C215.329 140.662 214.882 141.11 214.884 141.663C214.885 142.215 215.334 142.662 215.886 142.66L215.881 140.66ZM223.848 142.641C224.4 142.639 224.846 142.19 224.844 141.637C224.843 141.085 224.393 140.639 223.841 140.641L223.848 142.641ZM231.794 140.599C231.242 140.603 230.797 141.054 230.802 141.607C230.806 142.159 231.257 142.603 231.81 142.599L231.794 140.599ZM239.775 142.507C240.327 142.498 240.768 142.043 240.759 141.491C240.75 140.939 240.296 140.498 239.743 140.507L239.775 142.507ZM247.69 140.341C247.138 140.355 246.702 140.815 246.717 141.367C246.732 141.919 247.191 142.355 247.743 142.34L247.69 140.341ZM255.712 142.077C256.264 142.055 256.694 141.59 256.672 141.038C256.65 140.486 256.185 140.057 255.633 140.079L255.712 142.077ZM263.57 139.702C263.019 139.733 262.597 140.205 262.627 140.756C262.658 141.307 263.129 141.73 263.681 141.699L263.57 139.702ZM271.646 141.191C272.197 141.151 272.611 140.672 272.571 140.122C272.531 139.571 272.052 139.157 271.502 139.197L271.646 141.191ZM279.413 138.55C278.863 138.6 278.458 139.086 278.508 139.636C278.558 140.186 279.045 140.592 279.595 140.541L279.413 138.55ZM287.525 139.74C288.074 139.679 288.47 139.184 288.409 138.636C288.348 138.087 287.854 137.691 287.305 137.752L287.525 139.74ZM295.177 136.796C294.63 136.869 294.244 137.371 294.317 137.919C294.389 138.466 294.891 138.851 295.439 138.779L295.177 136.796ZM303.332 137.654C303.878 137.571 304.253 137.06 304.169 136.514C304.086 135.968 303.575 135.594 303.029 135.677L303.332 137.654ZM310.86 134.391C310.316 134.487 309.952 135.005 310.047 135.549C310.143 136.093 310.661 136.457 311.205 136.361L310.86 134.391ZM319.057 134.899C319.598 134.792 319.951 134.266 319.844 133.724C319.737 133.182 319.211 132.829 318.669 132.936L319.057 134.899ZM326.459 131.311C325.919 131.43 325.578 131.963 325.697 132.503C325.816 133.042 326.349 133.383 326.888 133.264L326.459 131.311ZM334.657 131.47C335.194 131.34 335.523 130.799 335.393 130.262C335.263 129.726 334.723 129.396 334.186 129.526L334.657 131.47ZM341.861 127.582C341.327 127.723 341.009 128.27 341.15 128.804C341.291 129.338 341.838 129.656 342.372 129.515L341.861 127.582ZM350.037 127.294C350.56 127.114 350.837 126.545 350.657 126.023C350.478 125.501 349.908 125.223 349.386 125.403L350.037 127.294ZM356.494 122.501C355.994 122.736 355.78 123.332 356.015 123.832C356.25 124.331 356.846 124.546 357.346 124.31L356.494 122.501ZM364.315 120.629C364.792 120.35 364.953 119.738 364.674 119.261C364.395 118.784 363.783 118.624 363.306 118.902L364.315 120.629ZM369.819 114.757C369.364 115.07 369.249 115.693 369.562 116.148C369.875 116.603 370.497 116.718 370.952 116.405L369.819 114.757ZM377.276 111.758C377.711 111.418 377.788 110.789 377.448 110.354C377.108 109.919 376.479 109.842 376.044 110.182L377.276 111.758ZM382.02 105.249C381.603 105.611 381.559 106.243 381.921 106.66C382.284 107.077 382.915 107.121 383.332 106.759L382.02 105.249ZM389.129 101.485C389.529 101.105 389.545 100.472 389.165 100.071C388.784 99.6711 388.151 99.655 387.751 100.035L389.129 101.485ZM393.262 94.5853C392.877 94.981 392.885 95.6141 393.281 95.9994C393.677 96.3846 394.31 96.3761 394.695 95.9804L393.262 94.5853ZM400.058 90.2749C400.429 89.8662 400.399 89.2337 399.99 88.8624C399.581 88.491 398.949 88.5213 398.577 88.93L400.058 90.2749ZM403.708 83.1013C403.35 83.5213 403.399 84.1525 403.819 84.5111C404.24 84.8697 404.871 84.8199 405.229 84.3998L403.708 83.1013ZM410.222 78.3792C410.569 77.9493 410.501 77.3197 410.071 76.9731C409.642 76.6265 409.012 76.694 408.665 77.1239L410.222 78.3792ZM413.462 71.012C413.127 71.4508 413.211 72.0784 413.649 72.4137C414.088 72.7491 414.716 72.6653 415.051 72.2266L413.462 71.012ZM419.723 65.9575C420.048 65.5107 419.949 64.8854 419.502 64.5607C419.055 64.236 418.43 64.335 418.105 64.7817L419.723 65.9575ZM422.597 58.4482C422.282 58.9023 422.396 59.5253 422.85 59.8396C423.304 60.1539 423.927 60.0406 424.241 59.5865L422.597 58.4482ZM428.622 53.104C428.927 52.6431 428.799 52.0228 428.339 51.7186C427.878 51.4144 427.257 51.5415 426.953 52.0025L428.622 53.104ZM431.165 45.4651C430.871 45.9326 431.012 46.55 431.479 46.844C431.947 47.138 432.564 46.9974 432.858 46.5299L431.165 45.4651ZM436.938 39.8816C437.222 39.4078 437.068 38.7937 436.594 38.51C436.12 38.2263 435.506 38.3805 435.222 38.8544L436.938 39.8816ZM439.147 32.1248C438.874 32.6051 439.042 33.2155 439.523 33.4881C440.003 33.7608 440.613 33.5924 440.886 33.1121L439.147 32.1248ZM444.654 26.2809C444.914 25.7939 444.731 25.188 444.244 24.9274C443.757 24.6669 443.151 24.8505 442.89 25.3375L444.654 26.2809ZM446.466 18.4189C446.22 18.9133 446.421 19.5136 446.916 19.7598C447.41 20.0059 448.011 19.8046 448.257 19.3102L446.466 18.4189ZM451.622 12.2343C451.849 11.7309 451.625 11.1386 451.122 10.9115C450.619 10.6843 450.026 10.9082 449.799 11.4116L451.622 12.2343ZM452.787 4.27897C452.591 4.79525 452.85 5.37279 453.366 5.56895C453.883 5.76511 454.46 5.5056 454.656 4.98933L452.787 4.27897ZM5.9445 248.829C6.23586 247.991 6.77583 246.881 7.57174 245.518L5.84463 244.51C5.02025 245.921 4.40797 247.158 4.0555 248.171L5.9445 248.829ZM11.8976 239.072C13.2834 237.188 14.8786 235.131 16.6634 232.936L15.1116 231.674C13.3095 233.891 11.6941 235.973 10.2864 237.887L11.8976 239.072ZM21.7007 226.958C23.3379 225.077 25.0793 223.131 26.9152 221.136L25.4433 219.782C23.5954 221.79 21.8418 223.75 20.1922 225.645L21.7007 226.958ZM32.277 215.451C34.0455 213.621 35.8804 211.764 37.7751 209.892L36.3694 208.469C34.4637 210.352 32.6179 212.22 30.8387 214.061L32.277 215.451ZM43.4037 204.457C45.275 202.69 47.1927 200.92 49.1514 199.155L47.8126 197.669C45.8422 199.445 43.9131 201.225 42.0309 203.002L43.4037 204.457ZM55.0197 193.993C56.987 192.304 58.9875 190.628 61.0163 188.974L59.7525 187.424C57.7101 189.089 55.6966 190.776 53.7169 192.475L55.0197 193.993ZM67.1384 184.119C69.2031 182.528 71.2906 180.966 73.3962 179.441L72.2234 177.821C70.1008 179.358 67.9973 180.932 65.9175 182.535L67.1384 184.119ZM79.7939 174.967C81.9664 173.502 84.1522 172.084 86.3464 170.722L85.2914 169.023C83.0747 170.399 80.8678 171.831 78.6757 173.309L79.7939 174.967ZM93.0545 166.751C94.1922 166.111 95.3306 165.488 96.469 164.883L95.531 163.117C94.3778 163.729 93.2252 164.36 92.074 165.007L93.0545 166.751ZM96.469 164.883C97.6545 164.254 98.8364 163.642 100.015 163.048L99.1145 161.262C97.9233 161.863 96.7289 162.481 95.531 163.117L96.469 164.883ZM107.155 159.639C109.595 158.539 112.022 157.511 114.438 156.55L113.699 154.692C111.254 155.664 108.8 156.704 106.333 157.816L107.155 159.639ZM121.852 153.795C124.371 152.925 126.881 152.122 129.385 151.383L128.818 149.465C126.286 150.213 123.747 151.024 121.199 151.905L121.852 153.795ZM137.019 149.315C139.596 148.678 142.168 148.103 144.739 147.583L144.343 145.622C141.745 146.148 139.145 146.729 136.539 147.373L137.019 149.315ZM152.529 146.17C155.142 145.75 157.756 145.38 160.374 145.055L160.128 143.07C157.487 143.398 154.849 143.771 152.211 144.196L152.529 146.17ZM168.255 144.208C170.883 143.966 173.517 143.763 176.162 143.592L176.033 141.597C173.372 141.768 170.719 141.973 168.072 142.216L168.255 144.208ZM184.087 143.172C186.72 143.061 189.365 142.974 192.025 142.907L191.974 140.908C189.304 140.975 186.648 141.062 184.002 141.174L184.087 143.172ZM199.972 142.759C202.605 142.724 205.256 142.703 207.926 142.688L207.915 140.688C205.242 140.703 202.586 140.725 199.946 140.759L199.972 142.759ZM215.886 142.66C218.518 142.654 221.172 142.649 223.848 142.641L223.841 140.641C221.167 140.649 218.515 140.654 215.881 140.66L215.886 142.66ZM231.81 142.599C234.44 142.578 237.095 142.549 239.775 142.507L239.743 140.507C237.07 140.549 234.421 140.578 231.794 140.599L231.81 142.599ZM247.743 142.34C250.373 142.27 253.029 142.184 255.712 142.077L255.633 140.079C252.959 140.185 250.312 140.271 247.69 140.341L247.743 142.34ZM263.681 141.699C266.309 141.554 268.963 141.386 271.646 141.191L271.502 139.197C268.831 139.39 266.187 139.558 263.57 139.702L263.681 141.699ZM279.595 140.541C282.211 140.303 284.854 140.037 287.525 139.74L287.305 137.752C284.646 138.047 282.016 138.312 279.413 138.55L279.595 140.541ZM295.439 138.779C298.042 138.436 300.673 138.062 303.332 137.654L303.029 135.677C300.384 136.083 297.767 136.455 295.177 136.796L295.439 138.779ZM311.205 136.361C313.795 135.908 316.412 135.421 319.057 134.899L318.669 132.936C316.038 133.456 313.436 133.94 310.86 134.391L311.205 136.361ZM326.888 133.264C329.451 132.701 332.04 132.103 334.657 131.47L334.186 129.526C331.584 130.156 329.008 130.751 326.459 131.311L326.888 133.264ZM342.372 129.515C343.664 129.174 344.961 128.824 346.266 128.464L345.734 126.536C344.437 126.894 343.146 127.242 341.861 127.582L342.372 129.515ZM346.266 128.464C347.524 128.117 348.782 127.727 350.037 127.294L349.386 125.403C348.169 125.822 346.951 126.201 345.734 126.536L346.266 128.464ZM357.346 124.31C359.68 123.211 362.005 121.98 364.315 120.629L363.306 118.902C361.043 120.225 358.771 121.429 356.494 122.501L357.346 124.31ZM370.952 116.405C373.076 114.945 375.185 113.392 377.276 111.758L376.044 110.182C373.983 111.793 371.907 113.322 369.819 114.757L370.952 116.405ZM383.332 106.759C385.284 105.063 387.217 103.302 389.129 101.485L387.751 100.035C385.859 101.833 383.948 103.574 382.02 105.249L383.332 106.759ZM394.695 95.9804C396.506 94.1205 398.294 92.216 400.058 90.2749L398.577 88.93C396.828 90.855 395.056 92.7428 393.262 94.5853L394.695 95.9804ZM405.229 84.3998C406.921 82.4184 408.586 80.4089 410.222 78.3792L408.665 77.1239C407.04 79.1397 405.387 81.1347 403.708 83.1013L405.229 84.3998ZM415.051 72.2266C416.641 70.147 418.199 68.0546 419.723 65.9575L418.105 64.7817C416.59 66.8663 415.042 68.9457 413.462 71.012L415.051 72.2266ZM424.241 59.5865C425.741 57.4194 427.203 55.2556 428.622 53.104L426.953 52.0025C425.541 54.142 424.088 56.2935 422.597 58.4482L424.241 59.5865ZM432.858 46.5299C434.269 44.2867 435.63 42.0672 436.938 39.8816L435.222 38.8544C433.921 41.0275 432.568 43.2345 431.165 45.4651L432.858 46.5299ZM440.886 33.1121C442.213 30.775 443.47 28.4932 444.654 26.2809L442.89 25.3375C441.715 27.5346 440.465 29.8018 439.147 32.1248L440.886 33.1121ZM448.257 19.3102C449.498 16.8171 450.622 14.4498 451.622 12.2343L449.799 11.4116C448.811 13.6018 447.697 15.9462 446.466 18.4189L448.257 19.3102ZM454.656 4.98933C455.16 3.66308 455.594 2.43087 455.953 1.30345L454.047 0.696546C453.701 1.78307 453.28 2.98033 452.787 4.27897L454.656 4.98933Z" fill="#5884FF" fill-opacity="0.5"/>
</svg>
