<svg width="478" height="237" viewBox="0 0 478 237" fill="none" xmlns="http://www.w3.org/2000/svg">
<path d="M477.953 1.30345C478.12 0.777212 477.83 0.214747 477.303 0.0471539C476.777 -0.120439 476.215 0.170304 476.047 0.696546L477.953 1.30345ZM402.5 102.5L402.234 101.536L402.5 102.5ZM146 141.5L145.662 140.559L146 141.5ZM4.09984 235.936C4.34039 236.433 4.93842 236.641 5.43556 236.4L13.537 232.48C14.0341 232.24 14.2421 231.642 14.0016 231.144C13.761 230.647 13.163 230.439 12.6659 230.68L5.4646 234.164L1.98011 226.963C1.73956 226.466 1.14154 226.258 0.644391 226.498C0.147246 226.739 -0.0607615 227.337 0.179792 227.834L4.09984 235.936ZM7.61943 232.601C7.91454 232.134 7.77534 231.516 7.30851 231.221C6.84168 230.926 6.22401 231.065 5.9289 231.532L7.61943 232.601ZM10.6865 225.152C10.3326 225.576 10.3894 226.206 10.8133 226.56C11.2373 226.914 11.8679 226.858 12.2219 226.434L10.6865 225.152ZM17.3966 220.655C17.7771 220.254 17.761 219.621 17.3608 219.241C16.9605 218.86 16.3275 218.876 15.947 219.277L17.3966 220.655ZM21.4975 213.708C21.0992 214.09 21.0866 214.723 21.4692 215.122C21.8518 215.52 22.4849 215.533 22.8831 215.15L21.4975 213.708ZM28.611 209.851C29.0231 209.483 29.0589 208.851 28.6912 208.439C28.3234 208.027 27.6913 207.991 27.2792 208.359L28.611 209.851ZM33.1985 203.244C32.7751 203.599 32.7193 204.23 33.0739 204.653C33.4285 205.076 34.0592 205.132 34.4826 204.777L33.1985 203.244ZM40.5377 199.853C40.971 199.511 41.0447 198.882 40.7023 198.449C40.3599 198.016 39.731 197.942 39.2977 198.284L40.5377 199.853ZM45.5056 193.511C45.0635 193.842 44.9733 194.469 45.3043 194.911C45.6352 195.353 46.2619 195.443 46.7041 195.112L45.5056 193.511ZM53.0158 190.51C53.466 190.19 53.5716 189.565 53.2517 189.115C52.9318 188.665 52.3075 188.559 51.8573 188.879L53.0158 190.51ZM58.3003 184.415C57.8427 184.724 57.7225 185.345 58.0317 185.803C58.341 186.261 58.9626 186.381 59.4202 186.072L58.3003 184.415ZM65.9198 181.785C66.3842 181.486 66.5184 180.867 66.2195 180.403C65.9206 179.938 65.3018 179.804 64.8374 180.103L65.9198 181.785ZM71.4758 175.933C71.005 176.221 70.8573 176.837 71.146 177.308C71.4348 177.779 72.0505 177.926 72.5213 177.638L71.4758 175.933ZM79.2146 173.631C79.6914 173.352 79.852 172.739 79.5734 172.263C79.2947 171.786 78.6822 171.625 78.2054 171.904L79.2146 173.631ZM85.0185 168.016C84.536 168.285 84.3628 168.894 84.6315 169.377C84.9003 169.859 85.5093 170.032 85.9917 169.764L85.0185 168.016ZM92.8464 166.036C93.3343 165.777 93.5198 165.172 93.2609 164.684C93.002 164.196 92.3966 164.011 91.9088 164.27L92.8464 166.036ZM98.8712 160.663C98.3783 160.912 98.1807 161.514 98.4299 162.007C98.6791 162.499 99.2806 162.697 99.7735 162.448L98.8712 160.663ZM106.769 158.997C107.266 158.758 107.476 158.16 107.236 157.663C106.997 157.165 106.399 156.956 105.901 157.195L106.769 158.997ZM112.996 153.866C112.494 154.095 112.273 154.689 112.503 155.191C112.732 155.693 113.326 155.914 113.828 155.684L112.996 153.866ZM120.949 152.507C121.455 152.287 121.687 151.698 121.467 151.191C121.247 150.685 120.658 150.453 120.151 150.673L120.949 152.507ZM127.365 147.617C126.855 147.827 126.612 148.412 126.822 148.923C127.033 149.433 127.618 149.676 128.128 149.466L127.365 147.617ZM135.363 146.559C135.878 146.357 136.131 145.777 135.93 145.263C135.729 144.749 135.149 144.495 134.635 144.696L135.363 146.559ZM141.958 141.91C141.44 142.101 141.176 142.677 141.367 143.195C141.559 143.713 142.134 143.977 142.652 143.786L141.958 141.91ZM150.191 141.076C150.713 140.894 150.988 140.324 150.806 139.802C150.624 139.281 150.054 139.006 149.532 139.188L150.191 141.076ZM157.245 136.575C156.72 136.748 156.434 137.313 156.607 137.837C156.779 138.362 157.344 138.648 157.869 138.476L157.245 136.575ZM165.6 136.016C166.127 135.853 166.424 135.294 166.261 134.766C166.099 134.238 165.539 133.942 165.011 134.105L165.6 136.016ZM172.842 131.773C172.311 131.925 172.004 132.479 172.157 133.01C172.31 133.541 172.864 133.847 173.395 133.695L172.842 131.773ZM181.222 131.521C181.755 131.378 182.072 130.83 181.929 130.297C181.786 129.763 181.238 129.446 180.705 129.589L181.222 131.521ZM188.599 127.553C188.063 127.686 187.737 128.228 187.87 128.764C188.003 129.3 188.545 129.627 189.081 129.494L188.599 127.553ZM196.971 127.611C197.51 127.488 197.846 126.952 197.723 126.413C197.6 125.875 197.063 125.539 196.525 125.662L196.971 127.611ZM204.479 123.914C203.939 124.028 203.593 124.558 203.707 125.099C203.821 125.639 204.351 125.985 204.891 125.871L204.479 123.914ZM212.858 124.267C213.401 124.163 213.756 123.639 213.652 123.097C213.547 122.554 213.023 122.199 212.481 122.303L212.858 124.267ZM220.508 120.83C219.964 120.925 219.6 121.444 219.695 121.988C219.79 122.532 220.308 122.896 220.852 122.8L220.508 120.83ZM228.867 121.467C229.413 121.381 229.785 120.869 229.699 120.323C229.613 119.778 229.101 119.406 228.555 119.492L228.867 121.467ZM236.62 118.283C236.073 118.36 235.692 118.866 235.77 119.413C235.848 119.96 236.354 120.34 236.901 120.263L236.62 118.283ZM244.951 119.181C245.499 119.111 245.887 118.611 245.817 118.063C245.748 117.515 245.247 117.127 244.699 117.197L244.951 119.181ZM252.792 116.228C252.244 116.29 251.849 116.785 251.911 117.333C251.973 117.882 252.468 118.277 253.016 118.215L252.792 116.228ZM261.095 117.358C261.644 117.303 262.045 116.813 261.991 116.263C261.936 115.714 261.446 115.313 260.896 115.367L261.095 117.358ZM269.009 114.607C268.459 114.655 268.052 115.141 268.101 115.691C268.149 116.241 268.634 116.648 269.184 116.599L269.009 114.607ZM277.284 115.931C277.834 115.888 278.246 115.407 278.203 114.856C278.161 114.306 277.68 113.894 277.129 113.936L277.284 115.931ZM285.254 113.344C284.703 113.382 284.287 113.859 284.325 114.41C284.363 114.961 284.84 115.378 285.391 115.34L285.254 113.344ZM293.505 114.814C294.056 114.781 294.475 114.306 294.442 113.755C294.408 113.204 293.934 112.784 293.382 112.818L293.505 114.814ZM301.513 112.343C300.961 112.374 300.539 112.846 300.57 113.398C300.601 113.949 301.073 114.371 301.624 114.34L301.513 112.343ZM309.748 113.902C310.299 113.873 310.723 113.402 310.694 112.851C310.665 112.299 310.194 111.875 309.643 111.904L309.748 113.902ZM317.771 111.483C317.22 111.512 316.796 111.982 316.824 112.533C316.853 113.085 317.323 113.509 317.874 113.481L317.771 111.483ZM326.003 113.058C326.554 113.029 326.978 112.558 326.948 112.006C326.919 111.455 326.448 111.031 325.897 111.061L326.003 113.058ZM334.017 110.614C333.465 110.646 333.044 111.118 333.076 111.67C333.107 112.221 333.58 112.642 334.132 112.611L334.017 110.614ZM342.259 112.115C342.81 112.079 343.227 111.603 343.191 111.052C343.155 110.501 342.68 110.083 342.129 110.119L342.259 112.115ZM350.229 109.548C349.678 109.59 349.266 110.071 349.308 110.622C349.35 111.172 349.83 111.585 350.381 111.542L350.229 109.548ZM358.506 110.862C359.056 110.812 359.461 110.325 359.411 109.775C359.36 109.225 358.874 108.82 358.324 108.87L358.506 110.862ZM366.407 108.051C365.858 108.112 365.463 108.607 365.524 109.156C365.586 109.705 366.08 110.1 366.629 110.039L366.407 108.051ZM374.732 109.035C375.279 108.96 375.662 108.456 375.587 107.908C375.512 107.361 375.007 106.978 374.46 107.053L374.732 109.035ZM382.471 105.837C381.927 105.928 381.559 106.444 381.651 106.988C381.742 107.533 382.258 107.9 382.802 107.809L382.471 105.837ZM390.832 106.315C391.373 106.204 391.721 105.675 391.61 105.134C391.499 104.593 390.97 104.245 390.429 104.356L390.832 106.315ZM398.33 102.562C397.794 102.696 397.468 103.239 397.602 103.775C397.736 104.31 398.279 104.636 398.815 104.502L398.33 102.562ZM406.764 102.242C407.288 102.066 407.57 101.499 407.394 100.976C407.218 100.452 406.651 100.17 406.127 100.346L406.764 102.242ZM413.67 97.3301C413.169 97.5636 412.953 98.1587 413.187 98.6591C413.42 99.1596 414.015 99.376 414.516 99.1424L413.67 97.3301ZM421.866 95.1984C422.337 94.9108 422.486 94.2954 422.199 93.824C421.911 93.3525 421.296 93.2034 420.824 93.4911L421.866 95.1984ZM427.524 88.8943C427.085 89.2302 427.002 89.8579 427.338 90.2963C427.674 90.7346 428.302 90.8177 428.74 90.4818L427.524 88.8943ZM435.092 85.0913C435.496 84.7141 435.517 84.0812 435.139 83.6779C434.762 83.2746 434.129 83.2535 433.726 83.6308L435.092 85.0913ZM439.418 77.8022C439.049 78.2138 439.084 78.8459 439.496 79.2142C439.908 79.5825 440.54 79.5474 440.908 79.1358L439.418 77.8022ZM446.198 72.7211C446.533 72.2818 446.448 71.6544 446.009 71.3197C445.569 70.985 444.942 71.0699 444.607 71.5093L446.198 72.7211ZM449.322 64.8406C449.019 65.3021 449.147 65.9221 449.609 66.2255C450.07 66.5288 450.69 66.4006 450.994 65.9391L449.322 64.8406ZM455.334 58.8664C455.609 58.3874 455.443 57.7762 454.964 57.5015C454.485 57.2267 453.874 57.3923 453.599 57.8714L455.334 58.8664ZM457.478 50.6638C457.228 51.1567 457.426 51.7582 457.919 52.0073C458.412 52.2564 459.014 52.0587 459.263 51.5657L457.478 50.6638ZM462.824 44.0867C463.05 43.5829 462.825 42.991 462.321 42.7648C461.817 42.5386 461.225 42.7636 460.999 43.2674L462.824 44.0867ZM464.206 35.7216C464 36.2339 464.248 36.8164 464.76 37.0227C465.273 37.2289 465.855 36.9808 466.061 36.4684L464.206 35.7216ZM469.019 28.7421C469.208 28.2232 468.941 27.6493 468.422 27.4601C467.903 27.2709 467.329 27.5382 467.14 28.0571L469.019 28.7421ZM469.847 20.3009C469.672 20.8246 469.954 21.3913 470.478 21.5666C471.001 21.7419 471.568 21.4595 471.743 20.9358L469.847 20.3009ZM474.284 13.0877C474.45 12.5609 474.158 11.9994 473.631 11.8337C473.104 11.6679 472.542 11.9606 472.377 12.4874L474.284 13.0877ZM474.821 4.61185C474.658 5.13942 474.953 5.69954 475.481 5.86291C476.008 6.02628 476.568 5.73104 476.732 5.20347L474.821 4.61185ZM5.9445 235.829C6.22537 235.021 6.77286 233.94 7.61943 232.601L5.9289 231.532C5.04384 232.932 4.40756 234.159 4.0555 235.171L5.9445 235.829ZM12.2219 226.434C13.699 224.664 15.4241 222.73 17.3966 220.655L15.947 219.277C13.9486 221.379 12.1944 223.346 10.6865 225.152L12.2219 226.434ZM22.8831 215.15C24.6571 213.446 26.5665 211.676 28.611 209.851L27.2792 208.359C25.2171 210.2 23.2897 211.986 21.4975 213.708L22.8831 215.15ZM34.4826 204.777C36.4061 203.167 38.4245 201.523 40.5377 199.853L39.2977 198.284C37.1698 199.966 35.1366 201.621 33.1985 203.244L34.4826 204.777ZM46.7041 195.112C48.7339 193.593 50.8379 192.057 53.0158 190.51L51.8573 188.879C49.666 190.437 47.5487 191.982 45.5056 193.511L46.7041 195.112ZM59.4202 186.072C61.526 184.648 63.6926 183.218 65.9198 181.785L64.8374 180.103C62.5975 181.545 60.4184 182.983 58.3003 184.415L59.4202 186.072ZM72.5213 177.638C74.7002 176.301 76.9313 174.965 79.2146 173.631L78.2054 171.904C75.9099 173.245 73.6666 174.589 71.4758 175.933L72.5213 177.638ZM85.9917 169.764C88.2308 168.516 90.5157 167.273 92.8464 166.036L91.9088 164.27C89.5661 165.513 87.2693 166.763 85.0185 168.016L85.9917 169.764ZM99.7735 162.448C102.064 161.29 104.396 160.139 106.769 158.997L105.901 157.195C103.517 158.343 101.174 159.499 98.8712 160.663L99.7735 162.448ZM113.828 155.684C116.165 154.615 118.538 153.555 120.949 152.507L120.151 150.673C117.729 151.726 115.344 152.791 112.996 153.866L113.828 155.684ZM128.128 149.466C130.506 148.484 132.918 147.515 135.363 146.559L134.635 144.696C132.178 145.657 129.755 146.631 127.365 147.617L128.128 149.466ZM142.652 143.786C143.873 143.334 145.102 142.886 146.338 142.441L145.662 140.559C144.419 141.006 143.185 141.456 141.958 141.91L142.652 143.786ZM146.338 142.441C147.626 141.978 148.91 141.523 150.191 141.076L149.532 139.188C148.245 139.637 146.955 140.094 145.662 140.559L146.338 142.441ZM157.869 138.476C160.46 137.625 163.036 136.805 165.6 136.016L165.011 134.105C162.436 134.897 159.847 135.721 157.245 136.575L157.869 138.476ZM173.395 133.695C176.018 132.94 178.628 132.216 181.222 131.521L180.705 129.589C178.098 130.287 175.477 131.014 172.842 131.773L173.395 133.695ZM189.081 129.494C191.727 128.837 194.357 128.21 196.971 127.611L196.525 125.662C193.899 126.264 191.257 126.893 188.599 127.553L189.081 129.494ZM204.891 125.871C207.564 125.309 210.219 124.775 212.858 124.267L212.481 122.303C209.83 122.813 207.163 123.349 204.479 123.914L204.891 125.871ZM220.852 122.8C223.542 122.33 226.213 121.887 228.867 121.467L228.555 119.492C225.891 119.913 223.208 120.358 220.508 120.83L220.852 122.8ZM236.901 120.263C239.603 119.879 242.286 119.519 244.951 119.181L244.699 117.197C242.025 117.536 239.332 117.897 236.62 118.283L236.901 120.263ZM253.016 118.215C255.729 117.909 258.422 117.624 261.095 117.358L260.896 115.367C258.215 115.635 255.514 115.921 252.792 116.228L253.016 118.215ZM269.184 116.599C271.905 116.36 274.605 116.138 277.284 115.931L277.129 113.936C274.444 114.145 271.737 114.367 269.009 114.607L269.184 116.599ZM285.391 115.34C288.118 115.153 290.822 114.979 293.505 114.814L293.382 112.818C290.696 112.983 287.986 113.157 285.254 113.344L285.391 115.34ZM301.624 114.34C304.355 114.188 307.063 114.043 309.748 113.902L309.643 111.904C306.957 112.045 304.247 112.191 301.513 112.343L301.624 114.34ZM317.874 113.481C320.609 113.34 323.318 113.2 326.003 113.058L325.897 111.061C323.214 111.203 320.506 111.343 317.771 111.483L317.874 113.481ZM334.132 112.611C336.867 112.453 339.576 112.289 342.259 112.115L342.129 110.119C339.452 110.293 336.749 110.457 334.017 110.614L334.132 112.611ZM350.381 111.542C353.118 111.333 355.827 111.108 358.506 110.862L358.324 108.87C355.655 109.115 352.957 109.34 350.229 109.548L350.381 111.542ZM366.629 110.039C369.361 109.733 372.062 109.4 374.732 109.035L374.46 107.053C371.808 107.416 369.124 107.747 366.407 108.051L366.629 110.039ZM382.802 107.809C385.512 107.354 388.188 106.858 390.832 106.315L390.429 104.356C387.811 104.894 385.159 105.385 382.471 105.837L382.802 107.809ZM398.815 104.502C400.141 104.17 401.458 103.825 402.766 103.464L402.234 101.536C400.942 101.892 399.64 102.234 398.33 102.562L398.815 104.502ZM402.766 103.464C404.123 103.09 405.456 102.682 406.764 102.242L406.127 100.346C404.854 100.775 403.556 101.172 402.234 101.536L402.766 103.464ZM414.516 99.1424C417.068 97.9511 419.517 96.6315 421.866 95.1984L420.824 93.4911C418.537 94.8866 416.153 96.1709 413.67 97.3301L414.516 99.1424ZM428.74 90.4818C430.956 88.7838 433.072 86.9816 435.092 85.0913L433.726 83.6308C431.751 85.4785 429.685 87.238 427.524 88.8943L428.74 90.4818ZM440.908 79.1358C442.761 77.0654 444.522 74.9216 446.198 72.7211L444.607 71.5093C442.961 73.6706 441.233 75.7734 439.418 77.8022L440.908 79.1358ZM450.994 65.9391C452.52 63.6174 453.965 61.2542 455.334 58.8664L453.599 57.8714C452.248 60.2267 450.825 62.5552 449.322 64.8406L450.994 65.9391ZM459.263 51.5657C460.521 49.0751 461.706 46.576 462.824 44.0867L460.999 43.2674C459.893 45.7313 458.721 48.2027 457.478 50.6638L459.263 51.5657ZM466.061 36.4684C467.114 33.8536 468.097 31.2707 469.019 28.7421L467.14 28.0571C466.225 30.5675 465.249 33.1295 464.206 35.7216L466.061 36.4684ZM471.743 20.9358C472.657 18.208 473.5 15.5808 474.284 13.0877L472.377 12.4874C471.595 14.9729 470.755 17.5879 469.847 20.3009L471.743 20.9358ZM476.732 5.20347C477.157 3.82988 477.563 2.52749 477.953 1.30345L476.047 0.696546C475.655 1.92825 475.247 3.23665 474.821 4.61185L476.732 5.20347Z" fill="#5884FF" fill-opacity="0.5"/>
</svg>
