<svg width="37" height="134" viewBox="0 0 37 134" fill="none" xmlns="http://www.w3.org/2000/svg">
<path d="M32.2755 76L33.2517 75.7831L33.2355 75.7105L33.2088 75.641L32.2755 76ZM11.8405 85L12.3063 84.1151L11.8405 85ZM5.77545 36.5L6.69351 36.8964L5.77545 36.5ZM33.2486 4.23003C33.3757 3.69255 33.0429 3.15385 32.5055 3.02681L23.7468 0.956589C23.2093 0.829544 22.6706 1.16228 22.5436 1.69975C22.4166 2.23721 22.7493 2.77591 23.2868 2.90295L31.0722 4.74316L29.232 12.5286C29.105 13.0661 29.4377 13.6048 29.9752 13.7318C30.5127 13.8589 31.0514 13.5262 31.1784 12.9887L33.2486 4.23003ZM36.2463 131.531C22.6493 128.076 6.77545 118.317 6.77545 98H4.77545C4.77545 119.683 21.7998 129.924 35.7537 133.469L36.2463 131.531ZM6.77545 98C6.77545 81.6967 12.6644 75.0937 18.4143 73.1085C21.3479 72.0957 24.3607 72.232 26.7778 72.9988C29.2525 73.7839 30.8756 75.1458 31.3421 76.359L33.2088 75.641C32.4254 73.6042 30.111 71.958 27.3826 71.0924C24.5966 70.2085 21.1406 70.0514 17.7616 71.218C10.8865 73.5917 4.77545 81.2387 4.77545 98H6.77545ZM31.2993 76.2169C32.1788 80.1744 30.1529 83.4494 26.5121 85.139C22.8447 86.8409 17.5648 86.8827 12.3063 84.1151L11.3748 85.8849C17.1163 88.9068 23.0539 88.9487 27.354 86.9532C31.6807 84.9453 34.3723 80.8256 33.2517 75.7831L31.2993 76.2169ZM12.3063 84.1151C7.9574 81.8262 4.16204 75.5742 2.66831 66.9543C1.18541 58.3968 2.0202 47.7189 6.69351 36.8964L4.85739 36.1036C0.03071 47.2811 -0.851958 58.3532 0.697681 67.2957C2.23649 76.1758 6.22367 83.1738 11.3748 85.8849L12.3063 84.1151ZM6.69351 36.8964C14.2 19.513 27.2802 8.26069 32.8009 4.8508L31.7499 3.1492C25.9374 6.73931 12.5509 18.287 4.85739 36.1036L6.69351 36.8964Z" fill="#005EE2"/>
</svg>
