<svg width="291" height="239" viewBox="0 0 291 239" fill="none" xmlns="http://www.w3.org/2000/svg">
<path d="M1.5 0.500022C0.947715 0.500022 0.5 0.947737 0.5 1.50002C0.5 2.05231 0.947715 2.50002 1.5 2.50002L1.5 0.500022ZM225 69.5001L225.765 68.8561L225 69.5001ZM284.499 238.365C284.977 238.642 285.589 238.479 285.865 238.001L290.375 230.212C290.651 229.734 290.488 229.122 290.01 228.846C289.532 228.569 288.921 228.732 288.644 229.21L284.636 236.133L277.712 232.125C277.234 231.848 276.622 232.012 276.346 232.49C276.069 232.967 276.232 233.579 276.71 233.856L284.499 238.365ZM5.51923 2.48814C6.07151 2.48511 6.51676 2.03494 6.51373 1.48267C6.5107 0.930391 6.06054 0.485138 5.50826 0.488167L5.51923 2.48814ZM13.5851 0.420365C13.0329 0.425932 12.5897 0.878137 12.5953 1.43039C12.6008 1.98265 13.053 2.42583 13.6053 2.42026L13.5851 0.420365ZM21.6763 2.34143C22.2285 2.33667 22.6724 1.88511 22.6676 1.33284C22.6628 0.780577 22.2113 0.336741 21.659 0.341505L21.6763 2.34143ZM29.762 0.292369C29.2097 0.293964 28.7633 0.74297 28.7648 1.29525C28.7664 1.84754 29.2154 2.29396 29.7677 2.29236L29.762 0.292369ZM37.8361 2.30338C38.3884 2.30675 38.8388 1.86177 38.8422 1.3095C38.8456 0.757223 38.4006 0.306784 37.8483 0.303413L37.8361 2.30338ZM45.9303 0.398138C45.3781 0.388339 44.9225 0.82804 44.9127 1.38024C44.9029 1.93244 45.3426 2.38802 45.8948 2.39782L45.9303 0.398138ZM53.957 2.59568C54.509 2.61318 54.9707 2.17987 54.9882 1.62786C55.0057 1.07586 54.5724 0.61418 54.0204 0.596681L53.957 2.59568ZM62.1122 0.916755C61.5605 0.890415 61.092 1.31627 61.0656 1.86792C61.0393 2.41958 61.4651 2.88814 62.0168 2.91448L62.1122 0.916755ZM70.0691 3.37019C70.6202 3.40643 71.0964 2.98906 71.1326 2.43797C71.1689 1.88687 70.7515 1.41074 70.2004 1.3745L70.0691 3.37019ZM78.2802 1.9851C77.73 1.93795 77.2457 2.3458 77.1985 2.89606C77.1513 3.44633 77.5592 3.93064 78.1095 3.9778L78.2802 1.9851ZM86.1329 4.75173C86.6821 4.81079 87.1751 4.41351 87.2341 3.86439C87.2932 3.31528 86.8959 2.82225 86.3468 2.7632L86.1329 4.75173ZM94.3947 3.72313C93.8472 3.65121 93.3449 4.03681 93.273 4.58439C93.2011 5.13197 93.5867 5.63418 94.1343 5.7061L94.3947 3.72313ZM102.106 6.8547C102.652 6.94045 103.164 6.56768 103.249 6.0221C103.335 5.47651 102.962 4.96471 102.417 4.87895L102.106 6.8547ZM110.406 6.24477C109.863 6.14423 109.341 6.50296 109.24 7.04602C109.14 7.58908 109.499 8.11081 110.042 8.21135L110.406 6.24477ZM117.935 9.79021C118.474 9.90648 119.006 9.56306 119.123 9.02316C119.239 8.48325 118.896 7.95131 118.356 7.83504L117.935 9.79021ZM126.256 9.66376C125.72 9.53081 125.178 9.85758 125.045 10.3936C124.912 10.9297 125.239 11.472 125.775 11.6049L126.256 9.66376ZM133.551 13.669C134.083 13.8195 134.635 13.5108 134.786 12.9794C134.937 12.4481 134.628 11.8953 134.096 11.7447L133.551 13.669ZM141.863 14.0912C141.338 13.9222 140.774 14.2114 140.605 14.7372C140.436 15.263 140.726 15.8262 141.251 15.9952L141.863 14.0912ZM148.861 18.596C149.38 18.7843 149.954 18.5161 150.142 17.9969C150.33 17.4777 150.062 16.9041 149.543 16.7158L148.861 18.596ZM157.119 19.6303C156.608 19.4219 156.024 19.6677 155.816 20.1791C155.608 20.6906 155.853 21.2742 156.365 21.4825L157.119 19.6303ZM163.746 24.6647C164.249 24.8937 164.842 24.6719 165.071 24.1694C165.3 23.6668 165.078 23.0737 164.576 22.8447L163.746 24.6647ZM171.893 26.3677C171.401 26.1176 170.799 26.3139 170.549 26.8063C170.299 27.2987 170.495 27.9006 170.987 28.1508L171.893 26.3677ZM178.069 31.9468C178.55 32.2185 179.16 32.0489 179.432 31.5681C179.704 31.0872 179.534 30.4772 179.053 30.2055L178.069 31.9468ZM186.035 34.3619C185.567 34.0686 184.95 34.2102 184.657 34.6781C184.364 35.1461 184.505 35.7632 184.973 36.0565L186.035 34.3619ZM191.677 40.4789C192.131 40.7938 192.754 40.6812 193.069 40.2275C193.383 39.7737 193.271 39.1506 192.817 38.8358L191.677 40.4789ZM199.379 43.6244C198.941 43.2882 198.313 43.371 197.977 43.8092C197.641 44.2475 197.724 44.8752 198.162 45.2113L199.379 43.6244ZM204.412 50.2483C204.833 50.6051 205.464 50.5527 205.821 50.1312C206.178 49.7097 206.125 49.0787 205.704 48.7219L204.412 50.2483ZM211.774 54.1188C211.37 53.7419 210.737 53.7637 210.36 54.1674C209.984 54.5711 210.005 55.2039 210.409 55.5808L211.774 54.1188ZM216.141 61.1972C216.526 61.5931 217.159 61.602 217.555 61.2169C217.951 60.8319 217.96 60.1988 217.575 59.8029L216.141 61.1972ZM223.095 65.7597C222.73 65.3457 222.098 65.3065 221.684 65.6722C221.27 66.0378 221.231 66.6697 221.596 67.0837L223.095 65.7597ZM226.834 73.3057C227.18 73.7364 227.809 73.8052 228.24 73.4595C228.67 73.1137 228.739 72.4843 228.393 72.0536L226.834 73.3057ZM233.418 78.61C233.092 78.1643 232.466 78.0672 232.02 78.3933C231.574 78.7194 231.477 79.345 231.803 79.7908L233.418 78.61ZM236.483 86.4892C236.79 86.9486 237.411 87.0725 237.87 86.766C238.33 86.4594 238.454 85.8385 238.147 85.3791L236.483 86.4892ZM242.586 92.3389C242.298 91.8672 241.683 91.7179 241.211 92.0053C240.74 92.2927 240.59 92.908 240.878 93.3796L242.586 92.3389ZM244.996 100.447C245.264 100.93 245.873 101.103 246.356 100.834C246.838 100.566 247.012 99.9568 246.743 99.4743L244.996 100.447ZM250.624 106.762C250.374 106.27 249.772 106.074 249.279 106.324C248.787 106.575 248.591 107.177 248.842 107.669L250.624 106.762ZM252.425 115.026C252.658 115.527 253.253 115.744 253.754 115.511C254.255 115.278 254.471 114.683 254.238 114.182L252.425 115.026ZM257.595 121.718C257.379 121.21 256.791 120.973 256.283 121.19C255.775 121.406 255.539 121.993 255.755 122.502L257.595 121.718ZM258.842 130.079C259.042 130.594 259.622 130.848 260.136 130.648C260.651 130.448 260.906 129.868 260.705 129.353L258.842 130.079ZM263.583 137.081C263.398 136.56 262.826 136.289 262.305 136.474C261.785 136.659 261.513 137.231 261.698 137.751L263.583 137.081ZM264.338 145.511C264.509 146.036 265.073 146.324 265.598 146.153C266.124 145.982 266.411 145.418 266.24 144.893L264.338 145.511ZM268.686 152.766C268.529 152.237 267.972 151.935 267.443 152.092C266.913 152.249 266.611 152.806 266.768 153.335L268.686 152.766ZM269 161.21C269.144 161.743 269.693 162.058 270.227 161.914C270.76 161.77 271.075 161.221 270.931 160.688L269 161.21ZM272.994 168.671C272.861 168.135 272.319 167.808 271.783 167.94C271.247 168.072 270.92 168.614 271.052 169.15L272.994 168.671ZM272.932 177.134C273.053 177.673 273.588 178.012 274.127 177.891C274.666 177.769 275.004 177.234 274.883 176.696L272.932 177.134ZM276.609 184.731C276.498 184.19 275.97 183.841 275.429 183.952C274.888 184.063 274.539 184.592 274.65 185.133L276.609 184.731ZM276.234 193.201C276.336 193.744 276.859 194.102 277.401 194C277.944 193.898 278.302 193.375 278.2 192.832L276.234 193.201ZM279.658 200.917C279.564 200.373 279.046 200.008 278.502 200.102C277.958 200.197 277.593 200.714 277.688 201.259L279.658 200.917ZM279.047 209.363C279.136 209.908 279.65 210.278 280.195 210.189C280.74 210.101 281.11 209.587 281.021 209.042L279.047 209.363ZM282.32 217.17C282.234 216.625 281.722 216.253 281.176 216.339C280.631 216.425 280.258 216.937 280.345 217.483L282.32 217.17ZM281.644 225.599C281.734 226.144 282.248 226.513 282.793 226.423C283.338 226.333 283.707 225.819 283.617 225.274L281.644 225.599ZM285.066 233.334C284.955 232.793 284.427 232.444 283.886 232.555C283.345 232.665 282.996 233.193 283.106 233.734L285.066 233.334ZM1.5 2.50002C2.81119 2.50002 4.1514 2.49564 5.51923 2.48814L5.50826 0.488167C4.14327 0.495653 2.80679 0.500022 1.5 0.500022L1.5 2.50002ZM13.6053 2.42026C16.2181 2.39392 18.9101 2.36529 21.6763 2.34143L21.659 0.341505C18.891 0.365386 16.1965 0.394039 13.5851 0.420365L13.6053 2.42026ZM29.7677 2.29236C32.4041 2.28475 35.0954 2.28665 37.8361 2.30338L37.8483 0.303413C35.1005 0.286644 32.4032 0.284743 29.762 0.292369L29.7677 2.29236ZM45.8948 2.39782C48.5449 2.44485 51.2338 2.50935 53.957 2.59568L54.0204 0.596681C51.287 0.510034 48.5888 0.445315 45.9303 0.398138L45.8948 2.39782ZM62.0168 2.91448C64.6749 3.0414 67.3603 3.19204 70.0691 3.37019L70.2004 1.3745C67.4789 1.19552 64.7815 1.04421 62.1122 0.916755L62.0168 2.91448ZM78.1095 3.9778C80.7668 4.20553 83.4425 4.46238 86.1329 4.75173L86.3468 2.7632C83.6413 2.47222 80.9512 2.21401 78.2802 1.9851L78.1095 3.9778ZM94.1343 5.7061C96.7818 6.05386 99.4402 6.43568 102.106 6.8547L102.417 4.87895C99.7334 4.4572 97.0583 4.07299 94.3947 3.72313L94.1343 5.7061ZM110.042 8.21135C112.669 8.69784 115.301 9.22313 117.935 9.79021L118.356 7.83504C115.703 7.26373 113.052 6.73465 110.406 6.24477L110.042 8.21135ZM125.775 11.6049C128.37 12.2486 130.963 12.9356 133.551 13.669L134.096 11.7447C131.486 11.0052 128.872 10.3125 126.256 9.66376L125.775 11.6049ZM141.251 15.9952C143.796 16.8133 146.334 17.6793 148.861 18.596L149.543 16.7158C146.992 15.7905 144.431 14.9166 141.863 14.0912L141.251 15.9952ZM156.365 21.4825C158.839 22.4903 161.3 23.5501 163.746 24.6647L164.576 22.8447C162.104 21.7186 159.618 20.648 157.119 19.6303L156.365 21.4825ZM170.987 28.1508C173.366 29.3595 175.728 30.6241 178.069 31.9468L179.053 30.2055C176.686 28.8679 174.298 27.5895 171.893 26.3677L170.987 28.1508ZM184.973 36.0565C187.23 37.4713 189.466 38.9446 191.677 40.4789L192.817 38.8358C190.58 37.2834 188.318 35.7929 186.035 34.3619L184.973 36.0565ZM198.162 45.2113C200.271 46.8291 202.355 48.5074 204.412 50.2483L205.704 48.7219C203.623 46.9599 201.514 45.2615 199.379 43.6244L198.162 45.2113ZM210.409 55.5808C212.348 57.3911 214.26 59.2626 216.141 61.1972L217.575 59.8029C215.671 57.845 213.737 55.951 211.774 54.1188L210.409 55.5808ZM221.596 67.0837C222.484 68.0882 223.363 69.1082 224.235 70.144L225.765 68.8561C224.883 67.8082 223.993 66.7761 223.095 65.7597L221.596 67.0837ZM224.235 70.144C225.115 71.1902 225.982 72.2443 226.834 73.3057L228.393 72.0536C227.532 70.9803 226.656 69.9143 225.765 68.8561L224.235 70.144ZM231.803 79.7908C233.418 81.9985 234.978 84.2326 236.483 86.4892L238.147 85.3791C236.626 83.0992 235.05 80.8415 233.418 78.61L231.803 79.7908ZM240.878 93.3796C242.303 95.7178 243.674 98.0751 244.996 100.447L246.743 99.4743C245.409 97.0798 244.024 94.6999 242.586 92.3389L240.878 93.3796ZM248.842 107.669C250.086 110.112 251.279 112.566 252.425 115.026L254.238 114.182C253.083 111.701 251.879 109.226 250.624 106.762L248.842 107.669ZM255.755 122.502C256.83 125.027 257.858 127.554 258.842 130.079L260.705 129.353C259.715 126.81 258.679 124.263 257.595 121.718L255.755 122.502ZM261.698 137.751C262.622 140.347 263.501 142.935 264.338 145.511L266.24 144.893C265.398 142.3 264.513 139.695 263.583 137.081L261.698 137.751ZM266.768 153.335C267.553 155.981 268.296 158.608 269 161.21L270.931 160.688C270.223 158.071 269.476 155.429 268.686 152.766L266.768 153.335ZM271.052 169.15C271.717 171.849 272.343 174.513 272.932 177.134L274.883 176.696C274.291 174.062 273.663 171.385 272.994 168.671L271.052 169.15ZM274.65 185.133C275.214 187.884 275.741 190.576 276.234 193.201L278.2 192.832C277.705 190.197 277.176 187.494 276.609 184.731L274.65 185.133ZM277.688 201.259C278.174 204.064 278.625 206.769 279.047 209.363L281.021 209.042C280.598 206.443 280.146 203.73 279.658 200.917L277.688 201.259ZM280.345 217.483C280.804 220.392 281.233 223.107 281.644 225.599L283.617 225.274C283.207 222.79 282.78 220.082 282.32 217.17L280.345 217.483ZM283.106 233.734C283.411 235.227 283.718 236.574 284.034 237.758L285.966 237.242C285.664 236.109 285.366 234.803 285.066 233.334L283.106 233.734Z" fill="#5884FF" fill-opacity="0.5"/>
</svg>
