<svg width="175" height="230" viewBox="0 0 175 230" fill="none" xmlns="http://www.w3.org/2000/svg">
<path d="M118.507 0.138273C118.031 -0.141941 117.418 0.0167092 117.138 0.492628C116.858 0.968547 117.017 1.58151 117.493 1.86173L118.507 0.138273ZM169.5 119L168.545 118.703L169.5 119ZM0.110304 224.043C-0.141844 224.535 0.0520804 225.138 0.543446 225.39L8.55071 229.499C9.04207 229.751 9.64481 229.557 9.89696 229.066C10.1491 228.574 9.95518 227.971 9.46381 227.719L2.34625 224.067L5.99868 216.949C6.25083 216.458 6.05691 215.855 5.56554 215.603C5.07418 215.351 4.47144 215.545 4.21929 216.036L0.110304 224.043ZM5.09711 224.274C5.62591 224.115 5.92539 223.557 5.76602 223.028C5.60666 222.5 5.0488 222.2 4.52 222.359L5.09711 224.274ZM12.1713 220.139C11.6398 220.289 11.3307 220.841 11.4808 221.373C11.631 221.904 12.1836 222.214 12.7151 222.063L12.1713 220.139ZM20.3901 219.918C20.9222 219.77 21.2336 219.219 21.0856 218.687C20.9376 218.155 20.3863 217.843 19.8542 217.991L20.3901 219.918ZM27.5487 215.843C27.0171 215.992 26.7074 216.545 26.8569 217.076C27.0065 217.608 27.5588 217.918 28.0904 217.768L27.5487 215.843ZM35.7727 215.578C36.3031 215.424 36.6086 214.869 36.455 214.339C36.3013 213.808 35.7467 213.503 35.2163 213.657L35.7727 215.578ZM42.8495 211.402C42.3207 211.561 42.0214 212.119 42.1809 212.648C42.3404 213.177 42.8983 213.476 43.4271 213.317L42.8495 211.402ZM51.0698 210.955C51.5963 210.788 51.8878 210.226 51.721 209.7C51.5542 209.173 50.9921 208.882 50.4656 209.049L51.0698 210.955ZM58.0476 206.579C57.5239 206.755 57.2416 207.321 57.417 207.845C57.5925 208.369 58.1593 208.651 58.6829 208.476L58.0476 206.579ZM66.2397 205.866C66.7599 205.681 67.0315 205.109 66.8462 204.589C66.661 204.068 66.089 203.797 65.5687 203.982L66.2397 205.866ZM73.0335 201.236C72.5172 201.432 72.2579 202.01 72.4542 202.526C72.6505 203.042 73.2281 203.301 73.7443 203.105L73.0335 201.236ZM81.1905 200.174C81.7019 199.965 81.9474 199.382 81.7389 198.87C81.5304 198.359 80.9468 198.113 80.4354 198.322L81.1905 200.174ZM87.7607 195.223C87.255 195.445 87.025 196.035 87.247 196.541C87.4689 197.047 88.0589 197.277 88.5646 197.055L87.7607 195.223ZM95.8515 193.73C96.3505 193.493 96.563 192.897 96.3263 192.398C96.0895 191.899 95.4931 191.686 94.9941 191.923L95.8515 193.73ZM102.118 188.401C101.627 188.654 101.434 189.257 101.687 189.748C101.94 190.239 102.543 190.432 103.034 190.179L102.118 188.401ZM110.093 186.383C110.574 186.113 110.745 185.503 110.475 185.021C110.204 184.54 109.595 184.369 109.113 184.639L110.093 186.383ZM115.956 180.616C115.486 180.905 115.339 181.521 115.629 181.992C115.918 182.462 116.534 182.608 117.005 182.319L115.956 180.616ZM123.743 177.963C124.2 177.653 124.319 177.031 124.009 176.574C123.699 176.117 123.077 175.998 122.62 176.308L123.743 177.963ZM129.071 171.696C128.629 172.029 128.541 172.656 128.874 173.097C129.206 173.538 129.833 173.626 130.274 173.294L129.071 171.696ZM136.557 168.289C136.98 167.933 137.034 167.302 136.678 166.88C136.322 166.458 135.691 166.404 135.269 166.76L136.557 168.289ZM141.169 161.481C140.769 161.862 140.753 162.495 141.133 162.895C141.514 163.295 142.147 163.311 142.547 162.93L141.169 161.481ZM148.191 157.202C148.565 156.796 148.539 156.163 148.133 155.789C147.727 155.414 147.094 155.44 146.72 155.846L148.191 157.202ZM151.868 149.848C151.523 150.28 151.594 150.909 152.026 151.254C152.458 151.598 153.087 151.527 153.432 151.095L151.868 149.848ZM158.208 144.611C158.518 144.154 158.399 143.532 157.942 143.222C157.485 142.912 156.863 143.031 156.553 143.488L158.208 144.611ZM160.717 136.784C160.445 137.265 160.614 137.875 161.095 138.147C161.576 138.419 162.186 138.25 162.458 137.769L160.717 136.784ZM166.126 130.597C166.356 130.095 166.136 129.501 165.634 129.271C165.132 129.04 164.539 129.26 164.308 129.762L166.126 130.597ZM167.287 122.462C167.101 122.982 167.371 123.554 167.891 123.741C168.411 123.927 168.983 123.657 169.17 123.137L167.287 122.462ZM171.517 115.562C171.656 115.027 171.334 114.482 170.8 114.343C170.265 114.205 169.719 114.527 169.581 115.061L171.517 115.562ZM171.122 107.653C171.035 108.198 171.407 108.711 171.953 108.797C172.498 108.884 173.01 108.512 173.097 107.967L171.122 107.653ZM173.953 100.261C173.989 99.7097 173.571 99.2341 173.02 99.1985C172.469 99.1629 171.993 99.5809 171.957 100.132L173.953 100.261ZM172.105 92.5617C172.119 93.1138 172.577 93.5503 173.129 93.5367C173.682 93.523 174.118 93.0644 174.104 92.5123L172.105 92.5617ZM173.582 84.783C173.521 84.2341 173.027 83.838 172.478 83.8983C171.93 83.9587 171.533 84.4527 171.594 85.0016L173.582 84.783ZM170.461 77.5049C170.565 78.0473 171.089 78.4026 171.631 78.2985C172.174 78.1943 172.529 77.6702 172.425 77.1279L170.461 77.5049ZM170.677 69.5896C170.532 69.0567 169.983 68.742 169.45 68.8869C168.917 69.0317 168.602 69.5812 168.747 70.1141L170.677 69.5896ZM166.493 62.8649C166.675 63.3861 167.246 63.6606 167.767 63.478C168.288 63.2954 168.563 62.7249 168.38 62.2037L166.493 62.8649ZM165.575 54.9995C165.358 54.4919 164.77 54.2568 164.262 54.4745C163.755 54.6921 163.52 55.28 163.737 55.7876L165.575 54.9995ZM160.515 48.9064C160.765 49.3987 161.367 49.5949 161.86 49.3446C162.352 49.0943 162.548 48.4923 162.298 48L160.515 48.9064ZM158.579 41.2269C158.298 40.7514 157.685 40.5936 157.21 40.8745C156.734 41.1554 156.576 41.7686 156.857 42.2441L158.579 41.2269ZM152.791 35.8232C153.1 36.2804 153.722 36.4 154.179 36.0902C154.637 35.7804 154.756 35.1586 154.446 34.7014L152.791 35.8232ZM149.918 28.4416C149.581 28.0043 148.953 27.9233 148.516 28.2606C148.078 28.5979 147.997 29.2258 148.334 29.6631L149.918 28.4416ZM143.507 23.7895C143.871 24.2051 144.502 24.247 144.918 23.8833C145.334 23.5195 145.376 22.8877 145.012 22.4722L143.507 23.7895ZM139.74 16.8218C139.351 16.4302 138.718 16.4285 138.326 16.818C137.934 17.2075 137.933 17.8407 138.322 18.2322L139.74 16.8218ZM132.791 13.0262C133.206 13.391 133.838 13.3506 134.202 12.936C134.567 12.5214 134.527 11.8895 134.112 11.5247L132.791 13.0262ZM128.132 6.62339C127.693 6.28883 127.065 6.37382 126.731 6.81324C126.396 7.25265 126.481 7.88008 126.921 8.21465L128.132 6.62339ZM120.717 3.85262C121.181 4.15238 121.8 4.01934 122.1 3.55548C122.4 3.09161 122.267 2.47258 121.803 2.17283L120.717 3.85262ZM1.30628 225.452C2.50248 225.067 3.76753 224.675 5.09711 224.274L4.52 222.359C3.18121 222.763 1.90407 223.159 0.693723 223.548L1.30628 225.452ZM12.7151 222.063C15.1427 221.377 17.7064 220.665 20.3901 219.918L19.8542 217.991C17.1715 218.737 14.6036 219.451 12.1713 220.139L12.7151 222.063ZM28.0904 217.768C30.5797 217.068 33.1445 216.339 35.7727 215.578L35.2163 213.657C32.5943 214.416 30.0346 215.143 27.5487 215.843L28.0904 217.768ZM43.4271 213.317C45.934 212.561 48.4846 211.774 51.0698 210.955L50.4656 209.049C47.8903 209.865 45.3486 210.648 42.8495 211.402L43.4271 213.317ZM58.6829 208.476C61.1815 207.638 63.703 206.769 66.2397 205.866L65.5687 203.982C63.0447 204.881 60.5351 205.746 58.0476 206.579L58.6829 208.476ZM73.7443 203.105C76.2215 202.163 78.7059 201.187 81.1905 200.174L80.4354 198.322C77.9664 199.329 75.4967 200.299 73.0335 201.236L73.7443 203.105ZM88.5646 197.055C91.0022 195.985 93.4334 194.877 95.8515 193.73L94.9941 191.923C92.5947 193.061 90.1814 194.161 87.7607 195.223L88.5646 197.055ZM103.034 190.179C105.409 188.956 107.764 187.691 110.093 186.383L109.113 184.639C106.806 185.935 104.473 187.189 102.118 188.401L103.034 190.179ZM117.005 182.319C119.286 180.914 121.535 179.463 123.743 177.963L122.62 176.308C120.437 177.79 118.213 179.226 115.956 180.616L117.005 182.319ZM130.274 173.294C132.418 171.678 134.515 170.01 136.557 168.289L135.269 166.76C133.255 168.457 131.187 170.101 129.071 171.696L130.274 173.294ZM142.547 162.93C144.493 161.079 146.377 159.17 148.191 157.202L146.72 155.846C144.937 157.781 143.084 159.659 141.169 161.481L142.547 162.93ZM153.432 151.095C155.104 148.997 156.699 146.836 158.208 144.611L156.553 143.488C155.073 145.67 153.509 147.789 151.868 149.848L153.432 151.095ZM162.458 137.769C163.773 135.444 164.998 133.054 166.126 130.597L164.308 129.762C163.204 132.167 162.005 134.507 160.717 136.784L162.458 137.769ZM169.17 123.137C169.623 121.874 170.052 120.593 170.455 119.297L168.545 118.703C168.151 119.972 167.731 121.225 167.287 122.462L169.17 123.137ZM170.455 119.297C170.841 118.055 171.195 116.81 171.517 115.562L169.581 115.061C169.266 116.278 168.921 117.493 168.545 118.703L170.455 119.297ZM173.097 107.967C173.504 105.402 173.787 102.832 173.953 100.261L171.957 100.132C171.795 102.642 171.519 105.151 171.122 107.653L173.097 107.967ZM174.104 92.5123C174.04 89.9282 173.864 87.3499 173.582 84.783L171.594 85.0016C171.87 87.5138 172.042 90.0357 172.105 92.5617L174.104 92.5123ZM172.425 77.1279C171.939 74.596 171.354 72.0814 170.677 69.5896L168.747 70.1141C169.411 72.5585 169.985 75.024 170.461 77.5049L172.425 77.1279ZM168.38 62.2037C167.528 59.7721 166.591 57.3688 165.575 54.9995L163.737 55.7876C164.736 58.1162 165.656 60.4772 166.493 62.8649L168.38 62.2037ZM162.298 48C161.129 45.7009 159.887 43.4413 158.579 41.2269L156.857 42.2441C158.144 44.4227 159.366 46.6454 160.515 48.9064L162.298 48ZM154.446 34.7014C152.996 32.561 151.485 30.4725 149.918 28.4416L148.334 29.6631C149.876 31.6616 151.363 33.7169 152.791 35.8232L154.446 34.7014ZM145.012 22.4722C143.303 20.5202 141.543 18.6347 139.74 16.8218L138.322 18.2322C140.095 20.0147 141.826 21.8692 143.507 23.7895L145.012 22.4722ZM134.112 11.5247C132.156 9.80354 130.16 8.16739 128.132 6.62339L126.921 8.21465C128.91 9.72932 130.869 11.3355 132.791 13.0262L134.112 11.5247ZM121.803 2.17283C120.711 1.46708 119.612 0.788545 118.507 0.138273L117.493 1.86173C118.573 2.49765 119.648 3.16161 120.717 3.85262L121.803 2.17283Z" fill="#5884FF" fill-opacity="0.5"/>
</svg>
