<svg width="28" height="28" viewBox="0 0 28 28" fill="none" xmlns="http://www.w3.org/2000/svg">
<path fill-rule="evenodd" clip-rule="evenodd" d="M3.79199 8.16669C3.79199 8.64993 4.18375 9.04169 4.66699 9.04169H8.16699C8.65024 9.04169 9.04199 8.64993 9.04199 8.16669C9.04199 7.68344 8.65024 7.29169 8.16699 7.29169H4.66699C4.18375 7.29169 3.79199 7.68344 3.79199 8.16669ZM11.9587 8.16669C11.9587 8.64993 12.3504 9.04169 12.8337 9.04169H23.3337C23.8169 9.04169 24.2087 8.64993 24.2087 8.16669C24.2087 7.68344 23.8169 7.29169 23.3337 7.29169H12.8337C12.3504 7.29169 11.9587 7.68344 11.9587 8.16669ZM24.2087 19.8334C24.2087 20.3166 23.8169 20.7084 23.3337 20.7084H19.8337C19.3504 20.7084 18.9587 20.3166 18.9587 19.8334C18.9587 19.3501 19.3504 18.9584 19.8337 18.9584H23.3337C23.8169 18.9584 24.2087 19.3501 24.2087 19.8334ZM16.042 19.8334C16.042 20.3166 15.6502 20.7084 15.167 20.7084H4.66699C4.18375 20.7084 3.79199 20.3166 3.79199 19.8334C3.79199 19.3501 4.18375 18.9584 4.66699 18.9584H15.167C15.6502 18.9584 16.042 19.3501 16.042 19.8334ZM3.79199 14C3.79199 14.4833 4.18375 14.875 4.66699 14.875H23.3337C23.8169 14.875 24.2087 14.4833 24.2087 14C24.2087 13.5168 23.8169 13.125 23.3337 13.125H4.66699C4.18375 13.125 3.79199 13.5168 3.79199 14Z" fill="black"/>
</svg>
