<svg width="101" height="21" viewBox="0 0 101 21" fill="none" xmlns="http://www.w3.org/2000/svg">
<path d="M10.0692 15.1516C10.3341 14.9918 10.6656 14.9918 10.9304 15.1516L13.959 16.9796C14.5901 17.3605 15.3686 16.7946 15.2012 16.0768L14.3974 12.6316C14.3272 12.3303 14.4295 12.0149 14.6633 11.8124L17.3432 9.49083C17.9 9.00852 17.603 8.09401 16.8692 8.03072L13.3411 7.72649C13.0337 7.69999 12.7661 7.50584 12.6456 7.22185L11.2669 3.97391C10.9796 3.29694 10.0201 3.29694 9.73275 3.97391L8.35409 7.22185C8.23355 7.50584 7.96597 7.69999 7.6586 7.72649L4.12803 8.03094C3.3945 8.09419 3.09737 9.00797 3.65341 9.49055L6.32927 11.8129C6.56238 12.0152 6.66457 12.3298 6.59485 12.6305L5.79508 16.0798C5.6287 16.7974 6.40686 17.3621 7.03749 16.9815L10.0692 15.1516Z" fill="#FFBD00"/>
<path d="M30.0692 15.1516C30.3341 14.9918 30.6656 14.9918 30.9304 15.1516L33.959 16.9796C34.5901 17.3605 35.3686 16.7946 35.2012 16.0768L34.3974 12.6316C34.3272 12.3303 34.4295 12.0149 34.6633 11.8124L37.3432 9.49083C37.9 9.00852 37.603 8.09401 36.8692 8.03072L33.3411 7.72649C33.0337 7.69999 32.7661 7.50584 32.6456 7.22185L31.2669 3.97391C30.9796 3.29694 30.0201 3.29694 29.7327 3.97391L28.3541 7.22185C28.2335 7.50584 27.966 7.69999 27.6586 7.72649L24.128 8.03094C23.3945 8.09419 23.0974 9.00797 23.6534 9.49055L26.3293 11.8129C26.5624 12.0152 26.6646 12.3298 26.5948 12.6305L25.7951 16.0798C25.6287 16.7974 26.4069 17.3621 27.0375 16.9815L30.0692 15.1516Z" fill="#FFBD00"/>
<path d="M50.0692 15.1516C50.3341 14.9918 50.6656 14.9918 50.9304 15.1516L53.959 16.9796C54.5901 17.3605 55.3686 16.7946 55.2012 16.0768L54.3974 12.6316C54.3272 12.3303 54.4295 12.0149 54.6633 11.8124L57.3432 9.49083C57.9 9.00852 57.603 8.09401 56.8692 8.03072L53.3411 7.72649C53.0337 7.69999 52.7661 7.50584 52.6456 7.22185L51.2669 3.97391C50.9796 3.29694 50.0201 3.29694 49.7327 3.97391L48.3541 7.22185C48.2335 7.50584 47.966 7.69999 47.6586 7.72649L44.128 8.03094C43.3945 8.09419 43.0974 9.00797 43.6534 9.49055L46.3293 11.8129C46.5624 12.0152 46.6646 12.3298 46.5948 12.6305L45.7951 16.0798C45.6287 16.7974 46.4069 17.3621 47.0375 16.9815L50.0692 15.1516Z" fill="#FFBD00"/>
<path d="M70.0692 15.1516C70.3341 14.9918 70.6656 14.9918 70.9304 15.1516L73.959 16.9796C74.5901 17.3605 75.3686 16.7946 75.2012 16.0768L74.3974 12.6316C74.3272 12.3303 74.4295 12.0149 74.6633 11.8124L77.3432 9.49083C77.9 9.00852 77.603 8.09401 76.8692 8.03072L73.3411 7.72649C73.0337 7.69999 72.7661 7.50584 72.6456 7.22185L71.2669 3.97391C70.9796 3.29694 70.0201 3.29694 69.7327 3.97391L68.3541 7.22185C68.2335 7.50584 67.966 7.69999 67.6586 7.72649L64.128 8.03094C63.3945 8.09419 63.0974 9.00797 63.6534 9.49055L66.3293 11.8129C66.5624 12.0152 66.6646 12.3298 66.5948 12.6305L65.7951 16.0798C65.6287 16.7974 66.4069 17.3621 67.0375 16.9815L70.0692 15.1516Z" fill="#FFBD00"/>
<path d="M90.0692 15.1516C90.3341 14.9918 90.6656 14.9918 90.9304 15.1516L93.959 16.9796C94.5901 17.3605 95.3686 16.7946 95.2012 16.0768L94.3974 12.6316C94.3272 12.3303 94.4295 12.0149 94.6633 11.8124L97.3432 9.49083C97.9 9.00852 97.603 8.09401 96.8692 8.03072L93.3411 7.72649C93.0337 7.69999 92.7661 7.50584 92.6456 7.22185L91.2669 3.97391C90.9796 3.29694 90.0201 3.29694 89.7327 3.97391L88.3541 7.22185C88.2335 7.50584 87.966 7.69999 87.6586 7.72649L84.128 8.03094C83.3945 8.09419 83.0974 9.00797 83.6534 9.49055L86.3293 11.8129C86.5624 12.0152 86.6646 12.3298 86.5948 12.6305L85.7951 16.0798C85.6287 16.7974 86.4069 17.3621 87.0375 16.9815L90.0692 15.1516Z" fill="#FFBD00"/>
</svg>
