<svg width="24" height="25" viewBox="0 0 24 25" fill="none" xmlns="http://www.w3.org/2000/svg">
<g clip-path="url(#clip0_51_3831)">
<path d="M12 0.25293C5.37264 0.25293 0 5.62557 0 12.2529C0 17.8804 3.87456 22.6027 9.10128 23.8997V15.9201H6.62688V12.2529H9.10128V10.6728C9.10128 6.58845 10.9498 4.69533 14.9597 4.69533C15.72 4.69533 17.0318 4.84461 17.5685 4.99341V8.31741C17.2853 8.28765 16.7933 8.27277 16.1822 8.27277C14.2147 8.27277 13.4544 9.01821 13.4544 10.956V12.2529H17.3741L16.7006 15.9201H13.4544V24.1651C19.3963 23.4475 24.0005 18.3883 24.0005 12.2529C24 5.62557 18.6274 0.25293 12 0.25293Z" fill="#101112"/>
</g>
<defs>
<clipPath id="clip0_51_3831">
<rect width="24" height="24" fill="white" transform="translate(0 0.25293)"/>
</clipPath>
</defs>
</svg>
