<svg width="24" height="25" viewBox="0 0 24 25" fill="none" xmlns="http://www.w3.org/2000/svg">
<g clip-path="url(#clip0_51_3830)">
<path d="M12 2.41387C15.2063 2.41387 15.5859 2.42793 16.8469 2.48418C18.0188 2.53574 18.6516 2.73262 19.0734 2.89668C19.6313 3.1123 20.0344 3.3748 20.4516 3.79199C20.8734 4.21387 21.1313 4.6123 21.3469 5.17012C21.5109 5.59199 21.7078 6.22949 21.7594 7.39668C21.8156 8.6623 21.8297 9.04199 21.8297 12.2436C21.8297 15.4498 21.8156 15.8295 21.7594 17.0904C21.7078 18.2623 21.5109 18.8951 21.3469 19.317C21.1313 19.8748 20.8687 20.2779 20.4516 20.6951C20.0297 21.117 19.6313 21.3748 19.0734 21.5904C18.6516 21.7545 18.0141 21.9514 16.8469 22.0029C15.5813 22.0592 15.2016 22.0732 12 22.0732C8.79375 22.0732 8.41406 22.0592 7.15313 22.0029C5.98125 21.9514 5.34844 21.7545 4.92656 21.5904C4.36875 21.3748 3.96563 21.1123 3.54844 20.6951C3.12656 20.2732 2.86875 19.8748 2.65313 19.317C2.48906 18.8951 2.29219 18.2576 2.24063 17.0904C2.18438 15.8248 2.17031 15.4451 2.17031 12.2436C2.17031 9.0373 2.18438 8.65762 2.24063 7.39668C2.29219 6.2248 2.48906 5.59199 2.65313 5.17012C2.86875 4.6123 3.13125 4.20918 3.54844 3.79199C3.97031 3.37012 4.36875 3.1123 4.92656 2.89668C5.34844 2.73262 5.98594 2.53574 7.15313 2.48418C8.41406 2.42793 8.79375 2.41387 12 2.41387ZM12 0.25293C8.74219 0.25293 8.33438 0.266992 7.05469 0.323242C5.77969 0.379492 4.90313 0.585742 4.14375 0.881055C3.35156 1.19043 2.68125 1.59824 2.01563 2.26855C1.34531 2.93418 0.9375 3.60449 0.628125 4.39199C0.332812 5.15605 0.126563 6.02793 0.0703125 7.30293C0.0140625 8.5873 0 8.99512 0 12.2529C0 15.5107 0.0140625 15.9186 0.0703125 17.1982C0.126563 18.4732 0.332812 19.3498 0.628125 20.1092C0.9375 20.9014 1.34531 21.5717 2.01563 22.2373C2.68125 22.9029 3.35156 23.3154 4.13906 23.6201C4.90313 23.9154 5.775 24.1217 7.05 24.1779C8.32969 24.2342 8.7375 24.2482 11.9953 24.2482C15.2531 24.2482 15.6609 24.2342 16.9406 24.1779C18.2156 24.1217 19.0922 23.9154 19.8516 23.6201C20.6391 23.3154 21.3094 22.9029 21.975 22.2373C22.6406 21.5717 23.0531 20.9014 23.3578 20.1139C23.6531 19.3498 23.8594 18.4779 23.9156 17.2029C23.9719 15.9232 23.9859 15.5154 23.9859 12.2576C23.9859 8.99981 23.9719 8.59199 23.9156 7.3123C23.8594 6.0373 23.6531 5.16074 23.3578 4.40137C23.0625 3.60449 22.6547 2.93418 21.9844 2.26855C21.3188 1.60293 20.6484 1.19043 19.8609 0.885742C19.0969 0.59043 18.225 0.38418 16.95 0.32793C15.6656 0.266992 15.2578 0.25293 12 0.25293Z" fill="#101112"/>
<path d="M12 6.08887C8.59688 6.08887 5.83594 8.8498 5.83594 12.2529C5.83594 15.6561 8.59688 18.417 12 18.417C15.4031 18.417 18.1641 15.6561 18.1641 12.2529C18.1641 8.8498 15.4031 6.08887 12 6.08887ZM12 16.2514C9.79219 16.2514 8.00156 14.4607 8.00156 12.2529C8.00156 10.0451 9.79219 8.25449 12 8.25449C14.2078 8.25449 15.9984 10.0451 15.9984 12.2529C15.9984 14.4607 14.2078 16.2514 12 16.2514Z" fill="#101112"/>
<path d="M19.8469 5.84483C19.8469 6.6417 19.2 7.28389 18.4078 7.28389C17.6109 7.28389 16.9688 6.63701 16.9688 5.84483C16.9688 5.04795 17.6156 4.40576 18.4078 4.40576C19.2 4.40576 19.8469 5.05264 19.8469 5.84483Z" fill="#101112"/>
</g>
<defs>
<clipPath id="clip0_51_3830">
<rect width="24" height="24" fill="white" transform="translate(0 0.25293)"/>
</clipPath>
</defs>
</svg>
