<svg width="48" height="48" viewBox="0 0 48 48" fill="none" xmlns="http://www.w3.org/2000/svg">
<rect width="48" height="48" rx="24" fill="white"/>
<path d="M29.8182 11.852C29.8258 11.7639 29.8681 11.6825 29.9357 11.6257C30.0034 11.5688 30.0908 11.5411 30.1789 11.5487C31.6386 11.6219 33.0401 12.1444 34.1915 13.0447C34.2262 13.0721 34.255 13.1062 34.2763 13.1449C34.2977 13.1836 34.3111 13.2262 34.3159 13.2701C34.3206 13.3141 34.3166 13.3585 34.304 13.4009C34.2914 13.4433 34.2705 13.4827 34.2425 13.5169C34.2145 13.5511 34.18 13.5794 34.141 13.6002C34.102 13.621 34.0592 13.6337 34.0152 13.6378C33.9712 13.6419 33.9268 13.6372 33.8846 13.6239C33.8424 13.6107 33.8033 13.5892 33.7695 13.5607C32.7212 12.7466 31.4473 12.2758 30.1215 12.2127C30.0335 12.205 29.9521 12.1628 29.8952 12.0951C29.8383 12.0275 29.8106 11.94 29.8182 11.852ZM14.5409 32.672C14.2658 32.0361 14.0746 31.3672 13.9722 30.682C13.9656 30.6387 13.9506 30.5971 13.928 30.5596C13.9053 30.5222 13.8755 30.4895 13.8403 30.4635C13.805 30.4376 13.765 30.4188 13.7225 30.4083C13.68 30.3978 13.6358 30.3958 13.5925 30.4023C13.5492 30.4089 13.5077 30.4239 13.4702 30.4466C13.4327 30.4692 13.4 30.499 13.3741 30.5342C13.3481 30.5695 13.3293 30.6095 13.3188 30.652C13.3083 30.6945 13.3063 30.7387 13.3129 30.782C13.4239 31.5234 13.631 32.2473 13.9289 32.9353C14.1833 33.5265 14.4799 34.0986 14.8162 34.6473C14.8639 34.7198 14.938 34.7707 15.0228 34.7894C15.1075 34.808 15.1961 34.793 15.2699 34.7473C15.3437 34.7017 15.3967 34.629 15.4178 34.5449C15.4389 34.4608 15.4264 34.3717 15.3829 34.2967C15.064 33.7757 14.7827 33.2328 14.5409 32.672ZM33.4982 26.0947C32.5802 27.3854 31.8467 28.7979 31.3189 30.2913C31.3039 30.3325 31.2972 30.3762 31.2991 30.42C31.3011 30.4638 31.3117 30.5068 31.3302 30.5465C31.3488 30.5862 31.375 30.6218 31.4074 30.6513C31.4398 30.6809 31.4776 30.7038 31.5189 30.7187C31.5554 30.7317 31.594 30.7385 31.6329 30.7387C31.7013 30.7387 31.768 30.7176 31.8241 30.6784C31.8802 30.6392 31.9228 30.5836 31.9462 30.5193C32.4545 29.0813 33.1606 27.7211 34.0442 26.478C34.0934 26.4056 34.1121 26.3168 34.0964 26.2308C34.0807 26.1447 34.0317 26.0683 33.9602 26.0179C33.8886 25.9676 33.8001 25.9475 33.7138 25.9618C33.6275 25.9762 33.5496 26.0239 33.4982 26.0947ZM32.4075 25.3287C31.2593 26.9539 30.3728 28.749 29.7802 30.6487C29.4298 31.9558 28.7954 33.1695 27.9222 34.2033C26.8955 35.3227 25.4435 36.47 24.3615 36.47C24.1775 36.4727 23.9952 36.4339 23.8282 36.3567C23.2282 36.0727 23.0122 35.3347 23.1822 34.1633C23.2489 33.7253 23.3155 33.3053 23.3822 32.9047C23.8062 30.3 23.9495 29.038 22.5822 28.8067C21.2162 28.578 20.9382 29.8147 20.4802 32.414C20.4102 32.814 20.3369 33.2327 20.2529 33.6667C20.0275 34.8293 19.5795 35.4547 18.9195 35.526C17.7195 35.6593 16.4709 33.7853 15.7642 32.1453C15.2789 30.8818 15.0794 29.5264 15.1802 28.1767C15.246 26.1879 14.9997 24.2011 14.4502 22.2887C12.9115 16.8767 14.8709 12.9387 17.4962 11.9813C19.3742 11.2953 21.4482 12.1613 23.1129 12.8573C23.7698 13.1642 24.4562 13.4036 25.1615 13.572C25.8832 13.6455 26.6105 13.6455 27.3322 13.572C29.1322 13.464 31.3742 13.3287 32.9235 14.5947C35.0895 16.362 35.6429 20.7247 32.4075 25.3287ZM31.8622 24.9453C34.8655 20.6713 34.4342 16.688 32.5042 15.11C31.1555 14.008 29.1475 14.1287 27.3742 14.2367C26.602 14.3147 25.8238 14.3122 25.0522 14.2293C24.2964 14.054 23.561 13.8 22.8582 13.4713C21.2195 12.7873 19.3629 12.0113 17.7249 12.6047C15.3829 13.4593 13.6642 17.0787 15.0915 22.1033C15.6554 24.0764 15.9104 26.1249 15.8475 28.176C15.7482 29.4344 15.9289 30.6992 16.3769 31.8793C17.2135 33.8233 18.3102 34.9247 18.8482 34.86C19.1729 34.8253 19.4395 34.3553 19.5975 33.5373C19.6809 33.1073 19.7542 32.6913 19.8242 32.2953C20.2669 29.7807 20.6115 27.792 22.6942 28.146C24.7722 28.498 24.4482 30.4887 24.0382 33.0127C23.9715 33.4093 23.9049 33.826 23.8429 34.2593C23.7229 35.084 23.8195 35.6153 24.1149 35.7553C24.6249 35.998 26.0022 35.312 27.4302 33.7553C28.2412 32.7884 28.8282 31.6539 29.1489 30.4333C29.7648 28.475 30.6801 26.6238 31.8622 24.9453ZM16.1955 35.4347C16.1261 35.4345 16.0583 35.455 16.0005 35.4934C15.9428 35.5319 15.8977 35.5866 15.8711 35.6507C15.8444 35.7147 15.8374 35.7853 15.8508 35.8533C15.8643 35.9214 15.8976 35.9839 15.9467 36.033C15.9957 36.0822 16.0582 36.1156 16.1262 36.1292C16.1942 36.1428 16.2648 36.1359 16.3289 36.1094C16.393 36.0828 16.4478 36.0379 16.4864 35.9802C16.5249 35.9225 16.5455 35.8547 16.5455 35.7853C16.5455 35.7391 16.5364 35.6932 16.5186 35.6505C16.5008 35.6078 16.4747 35.569 16.4419 35.5364C16.409 35.5038 16.3701 35.478 16.3272 35.4606C16.2843 35.4431 16.2385 35.4343 16.1922 35.4347H16.1955ZM28.3489 12.2347C28.4182 12.2348 28.4861 12.2143 28.5439 12.1759C28.6016 12.1374 28.6467 12.0827 28.6733 12.0186C28.6999 11.9546 28.707 11.8841 28.6935 11.816C28.6801 11.7479 28.6467 11.6854 28.5977 11.6363C28.5487 11.5872 28.4862 11.5537 28.4182 11.5401C28.3501 11.5265 28.2796 11.5334 28.2155 11.56C28.1514 11.5865 28.0966 11.6314 28.058 11.6891C28.0194 11.7468 27.9989 11.8146 27.9989 11.884C27.9997 11.9757 28.0365 12.0635 28.1013 12.1284C28.1661 12.1933 28.2538 12.2303 28.3455 12.2313L28.3489 12.2347ZM26.8822 15.3233C26.2348 15.5888 25.5224 15.6527 24.8382 15.5067C24.1453 15.4189 23.4948 15.1246 22.9715 14.662C22.9111 14.6001 22.829 14.564 22.7425 14.5616C22.6561 14.5591 22.572 14.5903 22.5081 14.6486C22.4442 14.707 22.4055 14.7878 22.4002 14.8742C22.3949 14.9605 22.4233 15.0456 22.4795 15.1113C23.1006 15.6894 23.8877 16.0576 24.7295 16.164C25.0127 16.2126 25.2995 16.2373 25.5869 16.238C26.1429 16.2551 26.6954 16.143 27.2009 15.9107C27.2787 15.8688 27.3368 15.7976 27.3622 15.7129C27.3877 15.6282 27.3784 15.5369 27.3365 15.459C27.2946 15.3811 27.2235 15.3231 27.1388 15.2976C27.0541 15.2722 26.9627 15.2814 26.8849 15.3233H26.8822Z" fill="#005EE2"/>
</svg>
