<svg width="63" height="63" viewBox="0 0 63 63" fill="none" xmlns="http://www.w3.org/2000/svg">
<rect x="18.5186" width="48" height="48" rx="24" transform="rotate(22.6934 18.5186 0)" fill="white"/>
<g clip-path="url(#clip0_81_111)">
<path d="M19.2346 41.4881C21.3504 42.3729 23.6971 41.9451 25.3563 40.5868C25.9716 42.6578 27.3231 44.437 29.2135 45.5671C29.5655 45.7793 29.9365 45.9634 30.3056 46.1177C33.8606 47.6043 38.0517 46.5677 40.4685 43.4667C40.6919 43.1916 40.8959 42.8939 41.0865 42.5762C41.2798 42.2523 41.4546 41.9207 41.5883 41.6009L41.5909 41.5948L41.5935 41.5886C43.338 37.6067 41.8374 32.9181 38.091 30.6795C35.7836 29.3027 32.97 29.1016 30.5236 30.0441L33.2577 23.5061C34.5334 20.4554 33.0876 16.9315 30.037 15.6558C26.9863 14.3801 23.4624 15.8258 22.1867 18.8765L16.0139 33.6378C14.7382 36.6885 16.1839 40.2124 19.2346 41.4881ZM29.734 31.9324C32.0487 30.4579 35.0457 30.4105 37.4096 31.8253C40.3586 33.586 41.6602 37.1436 40.6371 40.3505L29.0962 33.4577L29.734 31.9324ZM28.5766 34.7001L40.1114 41.5903C40.0554 41.6897 40.0081 41.7856 39.9459 41.8824C39.8899 41.9818 39.8303 42.0725 39.7707 42.1632L28.3169 35.3213L28.5766 34.7001ZM27.0849 38.2674L27.7973 36.5637L38.9211 43.2098C36.5929 45.6325 32.8465 46.1759 29.8949 44.4213C28.0574 43.3205 26.8166 41.5009 26.448 39.4102C26.6962 39.0587 26.9126 38.6795 27.0849 38.2674ZM23.4168 19.3909C24.4096 17.0168 27.1484 15.8931 29.5226 16.8859C31.8967 17.8787 33.0203 20.6176 32.0276 22.9917L29.1984 29.7573L20.5876 26.1565L23.4168 19.3909ZM20.0732 27.3866L28.684 30.9874L25.8548 37.753C24.862 40.1271 22.1231 41.2508 19.749 40.258C17.3749 39.2652 16.2512 36.5264 17.244 34.1522L20.0732 27.3866Z" fill="#005EE2"/>
<path d="M29.2654 17.501C28.9272 17.3595 28.5347 17.5205 28.3932 17.8588C28.2517 18.1971 28.4128 18.5896 28.751 18.7311C30.1103 19.2995 30.7509 20.8608 30.1825 22.2201L28.6393 25.9104C28.4978 26.2487 28.6588 26.6412 28.9971 26.7827C29.3354 26.9241 29.7279 26.7631 29.8694 26.4248L31.4126 22.7345C32.2639 20.6987 31.3013 18.3523 29.2654 17.501Z" fill="#005EE2"/>
</g>
<defs>
<clipPath id="clip0_81_111">
<rect width="32" height="32" fill="white" transform="translate(22.813 10.4671) rotate(22.6934)"/>
</clipPath>
</defs>
</svg>
