<svg width="74" height="74" viewBox="0 0 74 74" fill="none" xmlns="http://www.w3.org/2000/svg">
<rect y="15.2149" width="60" height="60" rx="30" transform="rotate(-14.6895 0 15.2149)" fill="white"/>
<g clip-path="url(#clip0_81_105)">
<path d="M29.143 45.0499C24.4757 46.2734 19.6298 43.2665 18.3398 38.3453L17.6678 35.7819C17.6257 35.6215 17.6491 35.4511 17.7328 35.308C17.8164 35.1649 17.9535 35.0609 18.1138 35.0188L20.5321 34.3849C20.6925 34.3428 20.8629 34.3662 21.0061 34.4499C21.1492 34.5335 21.2532 34.6706 21.2952 34.831L21.9672 37.3943C22.2751 38.7283 23.099 39.8859 24.2586 40.6137C25.4182 41.3415 26.8189 41.5801 28.1541 41.2774C29.4661 40.8862 30.5696 39.9911 31.223 38.788C31.8764 37.585 32.0265 36.172 31.6403 34.8585L30.9683 32.2951C30.9263 32.1348 30.9497 31.9643 31.0333 31.8212C31.117 31.6781 31.2541 31.5741 31.4144 31.5321L33.8327 30.8981C33.993 30.8561 34.1635 30.8795 34.3066 30.9631C34.4497 31.0468 34.5537 31.1839 34.5958 31.3442L35.2678 33.9076C36.5578 38.8288 33.8103 43.8264 29.143 45.0499ZM19.0354 36.0695L19.5489 38.0283C20.6631 42.2784 24.8238 44.89 28.8261 43.8408C32.8283 42.7916 35.1728 38.4747 34.0586 34.2246L33.5451 32.2658L32.336 32.5827L32.8495 34.5415C33.3195 36.1757 33.1226 37.9295 32.3019 39.4188C31.4812 40.908 30.1036 42.0111 28.471 42.4865C26.8152 42.8732 25.0736 42.5877 23.6278 41.6927C22.1821 40.7976 21.1501 39.3659 20.758 37.7113L20.2445 35.7525L19.0354 36.0695Z" fill="#005EE2"/>
<path d="M19.6403 35.911C19.4799 35.953 19.3094 35.9296 19.1663 35.846C19.0232 35.7623 18.9192 35.6252 18.8772 35.4649L16.8169 27.6055C16.6067 26.8038 16.7236 25.9514 17.1419 25.2359C17.5602 24.5204 18.2456 24.0003 19.0473 23.7902C19.2076 23.7481 19.3781 23.7715 19.5212 23.8552C19.6643 23.9388 19.7683 24.0759 19.8103 24.2363C19.8524 24.3966 19.829 24.5671 19.7453 24.7102C19.6617 24.8533 19.5246 24.9573 19.3642 24.9993C18.8832 25.1254 18.472 25.4374 18.221 25.8668C17.97 26.2961 17.8999 26.8075 18.026 27.2885L20.0863 35.1479C20.1284 35.3083 20.105 35.4787 20.0213 35.6218C19.9377 35.7649 19.8006 35.869 19.6403 35.911ZM32.9408 32.4242C32.7805 32.4663 32.61 32.4429 32.4669 32.3592C32.3238 32.2756 32.2198 32.1385 32.1778 31.9782L30.1174 24.1187C29.9913 23.6377 29.6793 23.2265 29.25 22.9755C28.8207 22.7245 28.3093 22.6544 27.8282 22.7805C27.6679 22.8225 27.4974 22.7991 27.3543 22.7155C27.2112 22.6318 27.1072 22.4947 27.0652 22.3344C27.0232 22.1741 27.0465 22.0036 27.1302 21.8605C27.2138 21.7174 27.3509 21.6134 27.5113 21.5713C28.313 21.3612 29.1653 21.4781 29.8809 21.8964C30.5964 22.3147 31.1164 23.0001 31.3266 23.8018L33.3869 31.6612C33.4289 31.8215 33.4056 31.992 33.3219 32.1351C33.2382 32.2782 33.1012 32.3822 32.9408 32.4242Z" fill="#005EE2"/>
<path d="M28.145 23.9896C27.9846 24.0317 27.8142 24.0083 27.6711 23.9246C27.528 23.841 27.424 23.7039 27.3819 23.5435L26.748 21.1253C26.7059 20.9649 26.7293 20.7944 26.813 20.6513C26.8966 20.5082 27.0337 20.4042 27.1941 20.3622C27.3544 20.3202 27.5249 20.3436 27.668 20.4272C27.8111 20.5109 27.9151 20.6479 27.9571 20.8083L28.5911 23.2266C28.6331 23.3869 28.6097 23.5574 28.5261 23.7005C28.4424 23.8436 28.3053 23.9476 28.145 23.9896ZM19.681 26.2085C19.5206 26.2505 19.3502 26.2271 19.2071 26.1435C19.064 26.0598 18.96 25.9227 18.9179 25.7624L18.284 23.3441C18.2419 23.1838 18.2653 23.0133 18.349 22.8702C18.4326 22.7271 18.5697 22.6231 18.7301 22.581C18.8904 22.539 19.0609 22.5624 19.204 22.646C19.3471 22.7297 19.4511 22.8668 19.4931 23.0271L20.1271 25.4454C20.1691 25.6057 20.1457 25.7762 20.0621 25.9193C19.9784 26.0624 19.8413 26.1664 19.681 26.2085ZM53.8602 45.6776C53.1427 45.8657 52.3856 45.8368 51.6846 45.5946C50.9836 45.3524 50.3702 44.9078 49.9218 44.3169C49.4735 43.7261 49.2105 43.0155 49.166 42.2752C49.1215 41.5348 49.2975 40.7979 49.6719 40.1576C50.0462 39.5173 50.602 39.0024 51.2689 38.678C51.9359 38.3536 52.6841 38.2342 53.4189 38.335C54.1537 38.4358 54.8421 38.7522 55.397 39.2443C55.952 39.7363 56.3486 40.3818 56.5367 41.0993C56.7889 42.0613 56.6486 43.0842 56.1466 43.9428C55.6447 44.8014 54.8222 45.4254 53.8602 45.6776ZM52.2753 39.6319C51.797 39.7573 51.3666 40.0217 51.0386 40.3917C50.7106 40.7617 50.4996 41.2206 50.4324 41.7105C50.3652 42.2003 50.4448 42.6991 50.6611 43.1438C50.8774 43.5884 51.2207 43.9589 51.6475 44.2085C52.0744 44.458 52.5657 44.5754 53.0592 44.5457C53.5528 44.516 54.0265 44.3407 54.4204 44.0418C54.8143 43.7429 55.1107 43.334 55.2722 42.8666C55.4337 42.3993 55.4529 41.8946 55.3275 41.4163C55.1594 40.7749 54.7434 40.2266 54.171 39.892C53.5986 39.5573 52.9167 39.4638 52.2753 39.6319Z" fill="#005EE2"/>
<path d="M39.4094 54.6349C37.325 55.1813 35.1088 54.8773 33.2485 53.7898C31.3882 52.7023 30.0361 50.9203 29.4896 48.8358L28.3802 44.6038C28.3382 44.4435 28.3616 44.273 28.4452 44.1299C28.5289 43.9868 28.666 43.8828 28.8263 43.8408C28.9866 43.7987 29.1571 43.8221 29.3002 43.9058C29.4433 43.9894 29.5473 44.1265 29.5894 44.2868L30.6988 48.5188C31.1611 50.2826 32.3052 51.7905 33.8793 52.7107C35.4535 53.6309 37.3287 53.8881 39.0924 53.4258C40.8562 52.9634 42.364 51.8193 43.2843 50.2452C44.2045 48.6711 44.4617 46.7959 43.9993 45.0321L40.9881 33.5452C40.6518 32.2625 40.8389 30.8987 41.5081 29.7539C42.1774 28.6091 43.274 27.777 44.5567 27.4408C45.8395 27.1045 47.2033 27.2916 48.3481 27.9608C49.4929 28.6301 50.3249 29.7267 50.6612 31.0094L52.7216 38.8689C52.7636 39.0292 52.7402 39.1997 52.6565 39.3428C52.5729 39.4859 52.4358 39.5899 52.2755 39.6319C52.1151 39.674 51.9447 39.6506 51.8016 39.5669C51.6585 39.4833 51.5544 39.3462 51.5124 39.1858L49.4521 31.3264C49.1999 30.3644 48.5758 29.5419 47.7172 29.04C46.8586 28.538 45.8358 28.3977 44.8737 28.6499C43.9117 28.9021 43.0892 29.5262 42.5872 30.3848C42.0853 31.2434 41.945 32.2662 42.1972 33.2283L45.2085 44.7151C45.7549 46.7996 45.4509 49.0157 44.3634 50.876C43.2759 52.7364 41.4939 54.0885 39.4094 54.6349Z" fill="#005EE2"/>
</g>
<defs>
<clipPath id="clip0_81_105">
<rect width="40" height="40" fill="white" transform="translate(12.209 22.3522) rotate(-14.6895)"/>
</clipPath>
</defs>
</svg>
